
<svg width="54px" height="55px" viewBox="0 0 54 55" version="1.1" xmlns="http://www.w3.org/2000/svg" xmlns:xlink="http://www.w3.org/1999/xlink">
    <!-- Generator: Sketch 50.2 (55047) - http://www.bohemiancoding.com/sketch -->
    <desc>Created with Sketch.</desc>
    <defs></defs>
    <g id="Welcome" stroke="none" stroke-width="1" fill="none" fill-rule="evenodd">
        <g id="OurTeam" transform="translate(-430.000000, -613.000000)" fill="#00AFD7" fill-rule="nonzero">
            <g id="paper-plane" transform="translate(429.982422, 613.896484)">
                <path d="M45.6644216,0.674588046 L2.49078663,25.5720761 C-1.07934087,27.6373533 -0.736857711,32.9198966 3.08234845,34.4870165 L14.9447198,39.3959419 L14.9447198,48.1552082 C14.9447198,52.970729 21.0886601,54.95298 23.9323082,51.1233956 L28.4779938,44.9898335 L40.0912865,49.7845978 C40.7036048,50.0336764 41.3470581,50.1582158 41.9905113,50.1582158 C42.84153,50.1582158 43.6821705,49.9402719 44.4397848,49.5147626 C45.7682043,48.7675266 46.6814928,47.439107 46.9201931,45.9342568 L53.0848901,5.7495658 C53.717965,1.58787648 49.2553056,-1.3906892 45.6644216,0.674588046 Z M19.926293,48.1552082 L19.926293,41.4508408 L23.7247427,43.0179608 L19.926293,48.1552082 Z M41.9905113,45.1766425 L26.0287203,38.5864362 L40.5790655,17.5911806 C41.6895412,15.9825475 39.5931291,14.1144576 38.1194137,15.3909857 L16.1693565,34.5181514 L4.98157326,29.8894396 L48.1552082,4.98157326 L41.9905113,45.1766425 Z" id="Shape"></path>
            </g>
        </g>
    </g>
</svg>