
<svg width="15px" height="15px" viewBox="0 0 15 15" version="1.1" xmlns="http://www.w3.org/2000/svg" xmlns:xlink="http://www.w3.org/1999/xlink">
    <!-- Generator: Sketch 50.2 (55047) - http://www.bohemiancoding.com/sketch -->
    <desc>Created with Sketch.</desc>
    <defs></defs>
    <g id="Welcome" stroke="none" stroke-width="1" fill="none" fill-rule="evenodd">
        <g id="Home" transform="translate(-1617.000000, -34.000000)" fill="#00AFD7" fill-rule="nonzero">
            <g id="arrow-right" transform="translate(1617.064453, 34.019239)">
                <path d="M6.23930387,0.979292313 L6.96640384,0.252192335 C7.27427501,-0.0556788272 7.77210923,-0.0556788272 8.07670516,0.252192335 L14.4437428,6.61595476 C14.751614,6.92382592 14.751614,7.42166014 14.4437428,7.72625607 L8.07670516,14.0932937 C7.768834,14.4011649 7.27099978,14.4011649 6.96640384,14.0932937 L6.23930387,13.3661937 C5.92815748,13.0550474 5.93470793,12.5473875 6.25240477,12.2427915 L10.199051,8.48283308 L0.78605403,8.48283308 C0.350449089,8.48283308 0,8.13238399 0,7.69677905 L0,6.64870701 C0,6.21310207 0.350449089,5.86265298 0.78605403,5.86265298 L10.199051,5.86265298 L6.25240477,2.10269453 C5.9314327,1.79809859 5.92488225,1.2904387 6.23930387,0.979292313 Z" id="Shape"></path>
            </g>
        </g>
    </g>
</svg>