
<svg width="31px" height="31px" viewBox="0 0 31 31" version="1.1" xmlns="http://www.w3.org/2000/svg" xmlns:xlink="http://www.w3.org/1999/xlink">
    <!-- Generator: Sketch 50.2 (55047) - http://www.bohemiancoding.com/sketch -->
    <desc>Created with Sketch.</desc>
    <defs></defs>
    <g id="Welcome" stroke="none" stroke-width="1" fill="none" fill-rule="evenodd">
        <g id="Home" transform="translate(-207.000000, -3247.000000)" fill="#00AFD7" fill-rule="nonzero">
            <g id="arrow-right-copy" transform="translate(222.500000, 3262.081205) scale(-1, 1) translate(-222.500000, -3262.081205) translate(207.000000, 3246.960938)">
                <path d="M13.1525612,2.06436526 L14.6853007,0.531625835 C15.3342984,-0.117371938 16.3837416,-0.117371938 17.0258352,0.531625835 L30.4476615,13.9465479 C31.0966592,14.5955457 31.0966592,15.6449889 30.4476615,16.2870824 L17.0258352,29.7089087 C16.3768374,30.3579065 15.3273942,30.3579065 14.6853007,29.7089087 L13.1525612,28.1761693 C12.4966592,27.5202673 12.5104677,26.4501114 13.1801782,25.8080178 L21.4997773,17.8819599 L1.65701559,17.8819599 C0.738752784,17.8819599 0,17.1432071 0,16.2249443 L0,14.0155902 C0,13.0973274 0.738752784,12.3585746 1.65701559,12.3585746 L21.4997773,12.3585746 L13.1801782,4.4325167 C12.5035635,3.79042316 12.489755,2.72026726 13.1525612,2.06436526 Z" id="Shape"></path>
            </g>
        </g>
    </g>
</svg>