
<svg width="58px" height="58px" viewBox="0 0 58 58" version="1.1" xmlns="http://www.w3.org/2000/svg" xmlns:xlink="http://www.w3.org/1999/xlink">
    <!-- Generator: Sketch 50.2 (55047) - http://www.bohemiancoding.com/sketch -->
    <desc>Created with Sketch.</desc>
    <defs></defs>
    <g id="Welcome" stroke="none" stroke-width="1" fill="none" fill-rule="evenodd">
        <g id="OurTeam" transform="translate(-811.000000, -613.000000)" fill="#00AFD7" fill-rule="nonzero">
            <g id="flag" transform="translate(810.642578, 612.785156)">
                <path d="M38.3389078,9.40494426 C32.8286455,9.40494426 27.8745459,5.81607358 20.1800072,5.81607358 C16.6695309,5.81607358 13.6411969,6.5430442 11.1269687,7.51719828 C11.3761529,6.76924665 11.4581584,5.97572272 11.3671988,5.19261945 C11.0739207,2.62814704 8.95424398,0.611538168 6.37855635,0.444431377 C3.24289274,0.24098727 0.636251102,2.72414933 0.636251102,5.81607358 C0.636251102,7.80834542 1.71930498,9.54648035 3.32790412,10.4773437 L3.32790412,56.0602632 C3.32790412,57.0513523 4.13125039,57.8546985 5.12233946,57.8546985 L6.9167748,57.8546985 C7.90786387,57.8546985 8.71121015,57.0513523 8.71121015,56.0602632 L8.71121015,46.7019464 C12.9583021,44.7642927 16.7030644,43.4992158 23.0471784,43.4992158 C28.5574407,43.4992158 33.5115403,47.0880865 41.206079,47.0880865 C47.764628,47.0880865 52.6424641,44.55154 55.6230212,42.604129 C57.143693,41.6106847 58.0581821,39.9160649 58.0581821,38.0996477 L58.0581821,11.192314 C58.0581821,7.32766105 54.1032466,4.71350521 50.5547507,6.24449502 C46.5281499,7.98162058 42.3166102,9.40494426 38.3389078,9.40494426 Z M52.6748761,38.1159098 C50.2318645,39.8443996 45.8533301,41.7047804 41.206079,41.7047804 C34.4831149,41.7047804 29.7663294,38.1159098 23.0471784,38.1159098 C18.1841465,38.1159098 12.2380607,39.170477 8.71121015,40.8075628 L8.71121015,14.7882503 C11.1543339,13.0597604 15.5327561,11.1993796 20.1800072,11.1993796 C26.9029714,11.1993796 31.6197568,14.7882503 38.3389078,14.7882503 C43.191846,14.7882503 49.1414086,12.840615 52.6748761,11.1993796 L52.6748761,38.1159098 Z" id="Shape"></path>
            </g>
        </g>
    </g>
</svg>