<svg xmlns="http://www.w3.org/2000/svg" viewBox="0 0 140.6 140.6" class="" id="success" style=""><defs><style>#success .cls-1{fill:#fff;}#success .cls-2{fill:#a5bac9;}#success .cls-3,#success .cls-4{fill:none;stroke-miterlimit:10;}#success .cls-3{stroke:#d1dbe3;stroke-width:5px;}#success .cls-4{stroke:#00acd8;stroke-width:4px;}#success .cls-5{fill:#00acd8;}</style></defs><title>Home_Success</title><g id="Layer_2_success" data-name="Layer 2"><g id="_2_success" data-name="2"><path class="cls-1 qSgszGCX_0" d="M0,70.3A70.3,70.3 0,1,1 140.6,70.3A70.3,70.3 0,1,1 0,70.3"></path><path class="cls-2 qSgszGCX_1" d="M62.55,124.63a2,2,0,0,1-1.7-2.26h0a2,2,0,0,1,2.26-1.7h0a2,2,0,0,1,1.7,2.26h0a2,2,0,0,1-2,1.72h0Zm13.34-1.72a2,2,0,0,1,1.7-2.26h0a2,2,0,0,1,2.26,1.7h0a2,2,0,0,1-1.69,2.26h0l-.29,0h0A2,2,0,0,1,75.89,122.91Zm-28.32-2.66h0a2,2,0,0,1-1-2.65h0a2,2,0,0,1,2.65-1h0a2,2,0,0,1,1,2.65h0a2,2,0,0,1-1.82,1.17h0A2,2,0,0,1,47.57,120.25Zm42.91-1a2,2,0,0,1,1-2.65h0a2,2,0,0,1,2.65,1h0a2,2,0,0,1-1,2.65h0a2.12,2.12,0,0,1-.84.18h0A2,2,0,0,1,90.48,119.22Zm-56-7.4a2,2,0,0,1-.21-2.82h0a2,2,0,0,1,2.82-.2h0a2,2,0,0,1,.21,2.82h0a2,2,0,0,1-1.52.69h0A2,2,0,0,1,34.43,111.82Zm69-.27a2,2,0,0,1,.2-2.82h0a2,2,0,0,1,2.82.2h0a2,2,0,0,1-.2,2.82h0a2,2,0,0,1-1.31.49h0A2,2,0,0,1,103.43,111.55Zm10.28-11a2,2,0,0,1-.6-2.76h0a2,2,0,0,1,2.76-.6h0a2,2,0,0,1,.61,2.76h0a2,2,0,0,1-1.69.92h0A2,2,0,0,1,113.71,100.55Zm6.77-13.44a2,2,0,0,1-1.35-2.48h0a2,2,0,0,1,2.49-1.36h0A2,2,0,0,1,123,85.75h0A2,2,0,0,1,121,87.19h0A2.23,2.23,0,0,1,120.48,87.11Zm-105-16.7a2,2,0,0,1,2-2h0a2,2,0,0,1,2,2h0a2,2,0,0,1-2,2h0A2,2,0,0,1,15.43,70.41Zm105.74-.11v-.08h0V70.1h0a2,2,0,0,1,2-2h0a2,2,0,0,1,2,2h0v.11h0v.11h0a2,2,0,0,1-2,2h0A2,2,0,0,1,121.17,70.3ZM19,57.43A2,2,0,0,1,17.6,55h0a2,2,0,0,1,2.48-1.36h0a2,2,0,0,1,1.37,2.48h0a2,2,0,0,1-1.92,1.44h0A1.85,1.85,0,0,1,19,57.43Zm5.71-13.92a2,2,0,0,1-.61-2.77h0a2,2,0,0,1,2.77-.6h0a2,2,0,0,1,.6,2.76h0a2,2,0,0,1-1.69.92h0A2,2,0,0,1,24.67,43.51Zm9.4-11.77a2,2,0,0,1,.19-2.82h0a2,2,0,0,1,2.82.2h0a2,2,0,0,1-.19,2.82h0a2,2,0,0,1-1.31.49h0A2,2,0,0,1,34.07,31.74Zm12.32-8.65a2,2,0,0,1,1-2.65h0a2,2,0,0,1,2.66,1h0a2,2,0,0,1-1,2.65h0a1.8,1.8,0,0,1-.84.18h0A2,2,0,0,1,46.39,23.09Zm14.25-4.82A2,2,0,0,1,62.33,16h0a2,2,0,0,1,2.27,1.7h0A2,2,0,0,1,62.91,20h0a1.46,1.46,0,0,1-.29,0h0A2,2,0,0,1,60.64,18.27Z"></path><path class="cls-3 qSgszGCX_2" d="M113.61,55.06S76.28,79.64,19.43,91.58"></path><path class="cls-4 qSgszGCX_3" d="M113.08,23.22s-31.85,35-93.67,60.44"></path><path class="cls-4 qSgszGCX_4" d="M114.24,44S72.73,72.71,18.71,84"></path><path class="cls-2 qSgszGCX_5" d="M111.6,94.27A1,1 0,1,1 113.6,94.27A1,1 0,1,1 111.6,94.27"></path><path class="cls-2 qSgszGCX_6" d="M107.6,94.27A1,1 0,1,1 109.6,94.27A1,1 0,1,1 107.6,94.27"></path><path class="cls-2 qSgszGCX_7" d="M107.6,98.27A1,1 0,1,1 109.6,98.27A1,1 0,1,1 107.6,98.27"></path><path class="cls-2 qSgszGCX_8" d="M103.6,94.27A1,1 0,1,1 105.6,94.27A1,1 0,1,1 103.6,94.27"></path><path class="cls-2 qSgszGCX_9" d="M99.6,94.27A1,1 0,1,1 101.6,94.27A1,1 0,1,1 99.6,94.27"></path><path class="cls-2 qSgszGCX_10" d="M103.6,98.27A1,1 0,1,1 105.6,98.27A1,1 0,1,1 103.6,98.27"></path><path class="cls-2 qSgszGCX_11" d="M99.6,98.27A1,1 0,1,1 101.6,98.27A1,1 0,1,1 99.6,98.27"></path><path class="cls-2 qSgszGCX_12" d="M103.6,102.4A1,1 0,1,1 105.6,102.4A1,1 0,1,1 103.6,102.4"></path><path class="cls-2 qSgszGCX_13" d="M99.6,102.4A1,1 0,1,1 101.6,102.4A1,1 0,1,1 99.6,102.4"></path><path class="cls-2 qSgszGCX_14" d="M99.6,106.4A1,1 0,1,1 101.6,106.4A1,1 0,1,1 99.6,106.4"></path><path class="cls-2 qSgszGCX_15" d="M95.6,94.27A1,1 0,1,1 97.6,94.27A1,1 0,1,1 95.6,94.27"></path><path class="cls-2 qSgszGCX_16" d="M91.6,94.27A1,1 0,1,1 93.6,94.27A1,1 0,1,1 91.6,94.27"></path><path class="cls-2 qSgszGCX_17" d="M95.6,98.27A1,1 0,1,1 97.6,98.27A1,1 0,1,1 95.6,98.27"></path><path class="cls-2 qSgszGCX_18" d="M91.6,98.27A1,1 0,1,1 93.6,98.27A1,1 0,1,1 91.6,98.27"></path><path class="cls-2 qSgszGCX_19" d="M87.6,94.27A1,1 0,1,1 89.6,94.27A1,1 0,1,1 87.6,94.27"></path><path class="cls-2 qSgszGCX_20" d="M83.6,94.27A1,1 0,1,1 85.6,94.27A1,1 0,1,1 83.6,94.27"></path><path class="cls-2 qSgszGCX_21" d="M87.6,98.27A1,1 0,1,1 89.6,98.27A1,1 0,1,1 87.6,98.27"></path><path class="cls-2 qSgszGCX_22" d="M83.6,98.27A1,1 0,1,1 85.6,98.27A1,1 0,1,1 83.6,98.27"></path><path class="cls-2 qSgszGCX_23" d="M95.6,102.4A1,1 0,1,1 97.6,102.4A1,1 0,1,1 95.6,102.4"></path><path class="cls-2 qSgszGCX_24" d="M95.6,106.4A1,1 0,1,1 97.6,106.4A1,1 0,1,1 95.6,106.4"></path><path class="cls-2 qSgszGCX_25" d="M91.6,102.4A1,1 0,1,1 93.6,102.4A1,1 0,1,1 91.6,102.4"></path><path class="cls-2 qSgszGCX_26" d="M91.6,106.4A1,1 0,1,1 93.6,106.4A1,1 0,1,1 91.6,106.4"></path><path class="cls-2 qSgszGCX_27" d="M95.6,110.4A1,1 0,1,1 97.6,110.4A1,1 0,1,1 95.6,110.4"></path><path class="cls-2 qSgszGCX_28" d="M91.6,110.4A1,1 0,1,1 93.6,110.4A1,1 0,1,1 91.6,110.4"></path><path class="cls-2 qSgszGCX_29" d="M87.6,102.4A1,1 0,1,1 89.6,102.4A1,1 0,1,1 87.6,102.4"></path><path class="cls-2 qSgszGCX_30" d="M87.6,106.4A1,1 0,1,1 89.6,106.4A1,1 0,1,1 87.6,106.4"></path><path class="cls-2 qSgszGCX_31" d="M83.6,102.4A1,1 0,1,1 85.6,102.4A1,1 0,1,1 83.6,102.4"></path><path class="cls-2 qSgszGCX_32" d="M83.6,106.4A1,1 0,1,1 85.6,106.4A1,1 0,1,1 83.6,106.4"></path><path class="cls-2 qSgszGCX_33" d="M87.6,110.4A1,1 0,1,1 89.6,110.4A1,1 0,1,1 87.6,110.4"></path><path class="cls-2 qSgszGCX_34" d="M83.6,110.4A1,1 0,1,1 85.6,110.4A1,1 0,1,1 83.6,110.4"></path><path class="cls-2 qSgszGCX_35" d="M87.6,114.4A1,1 0,1,1 89.6,114.4A1,1 0,1,1 87.6,114.4"></path><path class="cls-2 qSgszGCX_36" d="M83.6,114.4A1,1 0,1,1 85.6,114.4A1,1 0,1,1 83.6,114.4"></path><path class="cls-2 qSgszGCX_37" d="M79.6,94.27A1,1 0,1,1 81.6,94.27A1,1 0,1,1 79.6,94.27"></path><path class="cls-2 qSgszGCX_38" d="M75.6,94.27A1,1 0,1,1 77.6,94.27A1,1 0,1,1 75.6,94.27"></path><path class="cls-2 qSgszGCX_39" d="M79.6,98.27A1,1 0,1,1 81.6,98.27A1,1 0,1,1 79.6,98.27"></path><path class="cls-2 qSgszGCX_40" d="M75.6,98.27A1,1 0,1,1 77.6,98.27A1,1 0,1,1 75.6,98.27"></path><path class="cls-2 qSgszGCX_41" d="M71.6,94.27A1,1 0,1,1 73.6,94.27A1,1 0,1,1 71.6,94.27"></path><path class="cls-2 qSgszGCX_42" d="M67.6,94.27A1,1 0,1,1 69.6,94.27A1,1 0,1,1 67.6,94.27"></path><path class="cls-2 qSgszGCX_43" d="M71.6,98.27A1,1 0,1,1 73.6,98.27A1,1 0,1,1 71.6,98.27"></path><path class="cls-2 qSgszGCX_44" d="M67.6,98.27A1,1 0,1,1 69.6,98.27A1,1 0,1,1 67.6,98.27"></path><path class="cls-2 qSgszGCX_45" d="M79.6,102.4A1,1 0,1,1 81.6,102.4A1,1 0,1,1 79.6,102.4"></path><path class="cls-2 qSgszGCX_46" d="M79.6,106.4A1,1 0,1,1 81.6,106.4A1,1 0,1,1 79.6,106.4"></path><path class="cls-2 qSgszGCX_47" d="M75.6,102.4A1,1 0,1,1 77.6,102.4A1,1 0,1,1 75.6,102.4"></path><path class="cls-2 qSgszGCX_48" d="M75.6,106.4A1,1 0,1,1 77.6,106.4A1,1 0,1,1 75.6,106.4"></path><path class="cls-2 qSgszGCX_49" d="M79.6,110.4A1,1 0,1,1 81.6,110.4A1,1 0,1,1 79.6,110.4"></path><path class="cls-2 qSgszGCX_50" d="M75.6,110.4A1,1 0,1,1 77.6,110.4A1,1 0,1,1 75.6,110.4"></path><path class="cls-2 qSgszGCX_51" d="M79.6,114.4A1,1 0,1,1 81.6,114.4A1,1 0,1,1 79.6,114.4"></path><path class="cls-2 qSgszGCX_52" d="M75.6,114.4A1,1 0,1,1 77.6,114.4A1,1 0,1,1 75.6,114.4"></path><path class="cls-2 qSgszGCX_53" d="M71.6,102.4A1,1 0,1,1 73.6,102.4A1,1 0,1,1 71.6,102.4"></path><path class="cls-2 qSgszGCX_54" d="M71.6,106.4A1,1 0,1,1 73.6,106.4A1,1 0,1,1 71.6,106.4"></path><path class="cls-2 qSgszGCX_55" d="M67.6,102.4A1,1 0,1,1 69.6,102.4A1,1 0,1,1 67.6,102.4"></path><path class="cls-2 qSgszGCX_56" d="M67.6,106.4A1,1 0,1,1 69.6,106.4A1,1 0,1,1 67.6,106.4"></path><path class="cls-2 qSgszGCX_57" d="M71.6,110.4A1,1 0,1,1 73.6,110.4A1,1 0,1,1 71.6,110.4"></path><path class="cls-2 qSgszGCX_58" d="M67.6,110.4A1,1 0,1,1 69.6,110.4A1,1 0,1,1 67.6,110.4"></path><path class="cls-2 qSgszGCX_59" d="M71.6,114.4A1,1 0,1,1 73.6,114.4A1,1 0,1,1 71.6,114.4"></path><path class="cls-2 qSgszGCX_60" d="M67.6,114.4A1,1 0,1,1 69.6,114.4A1,1 0,1,1 67.6,114.4"></path><path class="cls-2 qSgszGCX_61" d="M63.599999999999994,94.27A1,1 0,1,1 65.6,94.27A1,1 0,1,1 63.599999999999994,94.27"></path><path class="cls-2 qSgszGCX_62" d="M59.6,94.27A1,1 0,1,1 61.6,94.27A1,1 0,1,1 59.6,94.27"></path><path class="cls-2 qSgszGCX_63" d="M63.599999999999994,98.27A1,1 0,1,1 65.6,98.27A1,1 0,1,1 63.599999999999994,98.27"></path><path class="cls-2 qSgszGCX_64" d="M59.6,98.27A1,1 0,1,1 61.6,98.27A1,1 0,1,1 59.6,98.27"></path><path class="cls-2 qSgszGCX_65" d="M63.599999999999994,102.4A1,1 0,1,1 65.6,102.4A1,1 0,1,1 63.599999999999994,102.4"></path><path class="cls-2 qSgszGCX_66" d="M63.599999999999994,106.4A1,1 0,1,1 65.6,106.4A1,1 0,1,1 63.599999999999994,106.4"></path><path class="cls-2 qSgszGCX_67" d="M59.6,102.4A1,1 0,1,1 61.6,102.4A1,1 0,1,1 59.6,102.4"></path><path class="cls-2 qSgszGCX_68" d="M59.6,106.4A1,1 0,1,1 61.6,106.4A1,1 0,1,1 59.6,106.4"></path><path class="cls-2 qSgszGCX_69" d="M63.599999999999994,110.4A1,1 0,1,1 65.6,110.4A1,1 0,1,1 63.599999999999994,110.4"></path><path class="cls-2 qSgszGCX_70" d="M59.6,110.4A1,1 0,1,1 61.6,110.4A1,1 0,1,1 59.6,110.4"></path><path class="cls-2 qSgszGCX_71" d="M63.599999999999994,114.4A1,1 0,1,1 65.6,114.4A1,1 0,1,1 63.599999999999994,114.4"></path><path class="cls-2 qSgszGCX_72" d="M59.6,114.4A1,1 0,1,1 61.6,114.4A1,1 0,1,1 59.6,114.4"></path><path class="cls-2 qSgszGCX_73" d="M55.6,94.27A1,1 0,1,1 57.6,94.27A1,1 0,1,1 55.6,94.27"></path><path class="cls-2 qSgszGCX_74" d="M51.6,94.27A1,1 0,1,1 53.6,94.27A1,1 0,1,1 51.6,94.27"></path><path class="cls-2 qSgszGCX_75" d="M55.6,98.27A1,1 0,1,1 57.6,98.27A1,1 0,1,1 55.6,98.27"></path><path class="cls-2 qSgszGCX_76" d="M51.6,98.27A1,1 0,1,1 53.6,98.27A1,1 0,1,1 51.6,98.27"></path><path class="cls-2 qSgszGCX_77" d="M55.6,102.4A1,1 0,1,1 57.6,102.4A1,1 0,1,1 55.6,102.4"></path><path class="cls-2 qSgszGCX_78" d="M55.6,106.4A1,1 0,1,1 57.6,106.4A1,1 0,1,1 55.6,106.4"></path><path class="cls-2 qSgszGCX_79" d="M51.6,102.4A1,1 0,1,1 53.6,102.4A1,1 0,1,1 51.6,102.4"></path><path class="cls-2 qSgszGCX_80" d="M51.6,106.4A1,1 0,1,1 53.6,106.4A1,1 0,1,1 51.6,106.4"></path><path class="cls-2 qSgszGCX_81" d="M55.6,110.4A1,1 0,1,1 57.6,110.4A1,1 0,1,1 55.6,110.4"></path><path class="cls-2 qSgszGCX_82" d="M51.6,110.4A1,1 0,1,1 53.6,110.4A1,1 0,1,1 51.6,110.4"></path><path class="cls-2 qSgszGCX_83" d="M55.6,114.4A1,1 0,1,1 57.6,114.4A1,1 0,1,1 55.6,114.4"></path><path class="cls-2 qSgszGCX_84" d="M47.6,94.27A1,1 0,1,1 49.6,94.27A1,1 0,1,1 47.6,94.27"></path><path class="cls-2 qSgszGCX_85" d="M43.6,94.27A1,1 0,1,1 45.6,94.27A1,1 0,1,1 43.6,94.27"></path><path class="cls-2 qSgszGCX_86" d="M47.6,98.27A1,1 0,1,1 49.6,98.27A1,1 0,1,1 47.6,98.27"></path><path class="cls-2 qSgszGCX_87" d="M43.6,98.27A1,1 0,1,1 45.6,98.27A1,1 0,1,1 43.6,98.27"></path><path class="cls-2 qSgszGCX_88" d="M47.6,102.4A1,1 0,1,1 49.6,102.4A1,1 0,1,1 47.6,102.4"></path><path class="cls-2 qSgszGCX_89" d="M47.6,106.4A1,1 0,1,1 49.6,106.4A1,1 0,1,1 47.6,106.4"></path><path class="cls-2 qSgszGCX_90" d="M43.6,102.4A1,1 0,1,1 45.6,102.4A1,1 0,1,1 43.6,102.4"></path><path class="cls-2 qSgszGCX_91" d="M43.6,106.4A1,1 0,1,1 45.6,106.4A1,1 0,1,1 43.6,106.4"></path><path class="cls-2 qSgszGCX_92" d="M47.6,110.4A1,1 0,1,1 49.6,110.4A1,1 0,1,1 47.6,110.4"></path><path class="cls-2 qSgszGCX_93" d="M39.6,94.27A1,1 0,1,1 41.6,94.27A1,1 0,1,1 39.6,94.27"></path><path class="cls-2 qSgszGCX_94" d="M39.6,98.27A1,1 0,1,1 41.6,98.27A1,1 0,1,1 39.6,98.27"></path><path class="cls-2 qSgszGCX_95" d="M39.6,102.4A1,1 0,1,1 41.6,102.4A1,1 0,1,1 39.6,102.4"></path><path class="cls-2 qSgszGCX_96" d="M35.6,94.27A1,1 0,1,1 37.6,94.27A1,1 0,1,1 35.6,94.27"></path><path class="cls-2 qSgszGCX_97" d="M31.6,94.27A1,1 0,1,1 33.6,94.27A1,1 0,1,1 31.6,94.27"></path><path class="cls-2 qSgszGCX_98" d="M35.6,98.27A1,1 0,1,1 37.6,98.27A1,1 0,1,1 35.6,98.27"></path><path class="cls-4 qSgszGCX_99" d="M93.1,21.12s-22,33.35-73.69,62.54"></path><path class="cls-5 qSgszGCX_100" d="M120.87,38.31L105.93,39.66L116.79,52.26L120.87,38.31Z"></path><path class="cls-1 qSgszGCX_101" d="M19.68,75.8s-3.2,9.71,6.8,24.71c0,0-4.09,7.67-9-.38S15.18,75.8,15.18,75.8Z"></path><path class="cls-5 qSgszGCX_102" d="M116.72,17.92L102.3,22.05L115.33,32.38L116.72,17.92Z"></path><path class="cls-5 qSgszGCX_103" d="M96.51,15.35L82.58,20.94L96.61,29.88L96.51,15.35Z"></path></g></g><style data-made-with="vivus-instant">.qSgszGCX_0{stroke-dasharray:442 444;stroke-dashoffset:443;}.start .qSgszGCX_0{animation:qSgszGCX_draw 800ms linear 0ms forwards;}.qSgszGCX_1{stroke-dasharray:191 193;stroke-dashoffset:192;}.start .qSgszGCX_1{animation:qSgszGCX_draw 800ms linear 3ms forwards;}.qSgszGCX_2{stroke-dasharray:102 104;stroke-dashoffset:103;}.start .qSgszGCX_2{animation:qSgszGCX_draw 800ms linear 7ms forwards;}.qSgszGCX_3{stroke-dasharray:113 115;stroke-dashoffset:114;}.start .qSgszGCX_3{animation:qSgszGCX_draw 800ms linear 11ms forwards;}.qSgszGCX_4{stroke-dasharray:105 107;stroke-dashoffset:106;}.start .qSgszGCX_4{animation:qSgszGCX_draw 800ms linear 15ms forwards;}.qSgszGCX_5{stroke-dasharray:7 9;stroke-dashoffset:8;}.start .qSgszGCX_5{animation:qSgszGCX_draw 800ms linear 19ms forwards;}.qSgszGCX_6{stroke-dasharray:7 9;stroke-dashoffset:8;}.start .qSgszGCX_6{animation:qSgszGCX_draw 800ms linear 23ms forwards;}.qSgszGCX_7{stroke-dasharray:7 9;stroke-dashoffset:8;}.start .qSgszGCX_7{animation:qSgszGCX_draw 800ms linear 27ms forwards;}.qSgszGCX_8{stroke-dasharray:7 9;stroke-dashoffset:8;}.start .qSgszGCX_8{animation:qSgszGCX_draw 800ms linear 31ms forwards;}.qSgszGCX_9{stroke-dasharray:7 9;stroke-dashoffset:8;}.start .qSgszGCX_9{animation:qSgszGCX_draw 800ms linear 34ms forwards;}.qSgszGCX_10{stroke-dasharray:7 9;stroke-dashoffset:8;}.start .qSgszGCX_10{animation:qSgszGCX_draw 800ms linear 38ms forwards;}.qSgszGCX_11{stroke-dasharray:7 9;stroke-dashoffset:8;}.start .qSgszGCX_11{animation:qSgszGCX_draw 800ms linear 42ms forwards;}.qSgszGCX_12{stroke-dasharray:7 9;stroke-dashoffset:8;}.start .qSgszGCX_12{animation:qSgszGCX_draw 800ms linear 46ms forwards;}.qSgszGCX_13{stroke-dasharray:7 9;stroke-dashoffset:8;}.start .qSgszGCX_13{animation:qSgszGCX_draw 800ms linear 50ms forwards;}.qSgszGCX_14{stroke-dasharray:7 9;stroke-dashoffset:8;}.start .qSgszGCX_14{animation:qSgszGCX_draw 800ms linear 54ms forwards;}.qSgszGCX_15{stroke-dasharray:7 9;stroke-dashoffset:8;}.start .qSgszGCX_15{animation:qSgszGCX_draw 800ms linear 58ms forwards;}.qSgszGCX_16{stroke-dasharray:7 9;stroke-dashoffset:8;}.start .qSgszGCX_16{animation:qSgszGCX_draw 800ms linear 62ms forwards;}.qSgszGCX_17{stroke-dasharray:7 9;stroke-dashoffset:8;}.start .qSgszGCX_17{animation:qSgszGCX_draw 800ms linear 66ms forwards;}.qSgszGCX_18{stroke-dasharray:7 9;stroke-dashoffset:8;}.start .qSgszGCX_18{animation:qSgszGCX_draw 800ms linear 69ms forwards;}.qSgszGCX_19{stroke-dasharray:7 9;stroke-dashoffset:8;}.start .qSgszGCX_19{animation:qSgszGCX_draw 800ms linear 73ms forwards;}.qSgszGCX_20{stroke-dasharray:7 9;stroke-dashoffset:8;}.start .qSgszGCX_20{animation:qSgszGCX_draw 800ms linear 77ms forwards;}.qSgszGCX_21{stroke-dasharray:7 9;stroke-dashoffset:8;}.start .qSgszGCX_21{animation:qSgszGCX_draw 800ms linear 81ms forwards;}.qSgszGCX_22{stroke-dasharray:7 9;stroke-dashoffset:8;}.start .qSgszGCX_22{animation:qSgszGCX_draw 800ms linear 85ms forwards;}.qSgszGCX_23{stroke-dasharray:7 9;stroke-dashoffset:8;}.start .qSgszGCX_23{animation:qSgszGCX_draw 800ms linear 89ms forwards;}.qSgszGCX_24{stroke-dasharray:7 9;stroke-dashoffset:8;}.start .qSgszGCX_24{animation:qSgszGCX_draw 800ms linear 93ms forwards;}.qSgszGCX_25{stroke-dasharray:7 9;stroke-dashoffset:8;}.start .qSgszGCX_25{animation:qSgszGCX_draw 800ms linear 97ms forwards;}.qSgszGCX_26{stroke-dasharray:7 9;stroke-dashoffset:8;}.start .qSgszGCX_26{animation:qSgszGCX_draw 800ms linear 100ms forwards;}.qSgszGCX_27{stroke-dasharray:7 9;stroke-dashoffset:8;}.start .qSgszGCX_27{animation:qSgszGCX_draw 800ms linear 104ms forwards;}.qSgszGCX_28{stroke-dasharray:7 9;stroke-dashoffset:8;}.start .qSgszGCX_28{animation:qSgszGCX_draw 800ms linear 108ms forwards;}.qSgszGCX_29{stroke-dasharray:7 9;stroke-dashoffset:8;}.start .qSgszGCX_29{animation:qSgszGCX_draw 800ms linear 112ms forwards;}.qSgszGCX_30{stroke-dasharray:7 9;stroke-dashoffset:8;}.start .qSgszGCX_30{animation:qSgszGCX_draw 800ms linear 116ms forwards;}.qSgszGCX_31{stroke-dasharray:7 9;stroke-dashoffset:8;}.start .qSgszGCX_31{animation:qSgszGCX_draw 800ms linear 120ms forwards;}.qSgszGCX_32{stroke-dasharray:7 9;stroke-dashoffset:8;}.start .qSgszGCX_32{animation:qSgszGCX_draw 800ms linear 124ms forwards;}.qSgszGCX_33{stroke-dasharray:7 9;stroke-dashoffset:8;}.start .qSgszGCX_33{animation:qSgszGCX_draw 800ms linear 128ms forwards;}.qSgszGCX_34{stroke-dasharray:7 9;stroke-dashoffset:8;}.start .qSgszGCX_34{animation:qSgszGCX_draw 800ms linear 132ms forwards;}.qSgszGCX_35{stroke-dasharray:7 9;stroke-dashoffset:8;}.start .qSgszGCX_35{animation:qSgszGCX_draw 800ms linear 135ms forwards;}.qSgszGCX_36{stroke-dasharray:7 9;stroke-dashoffset:8;}.start .qSgszGCX_36{animation:qSgszGCX_draw 800ms linear 139ms forwards;}.qSgszGCX_37{stroke-dasharray:7 9;stroke-dashoffset:8;}.start .qSgszGCX_37{animation:qSgszGCX_draw 800ms linear 143ms forwards;}.qSgszGCX_38{stroke-dasharray:7 9;stroke-dashoffset:8;}.start .qSgszGCX_38{animation:qSgszGCX_draw 800ms linear 147ms forwards;}.qSgszGCX_39{stroke-dasharray:7 9;stroke-dashoffset:8;}.start .qSgszGCX_39{animation:qSgszGCX_draw 800ms linear 151ms forwards;}.qSgszGCX_40{stroke-dasharray:7 9;stroke-dashoffset:8;}.start .qSgszGCX_40{animation:qSgszGCX_draw 800ms linear 155ms forwards;}.qSgszGCX_41{stroke-dasharray:7 9;stroke-dashoffset:8;}.start .qSgszGCX_41{animation:qSgszGCX_draw 800ms linear 159ms forwards;}.qSgszGCX_42{stroke-dasharray:7 9;stroke-dashoffset:8;}.start .qSgszGCX_42{animation:qSgszGCX_draw 800ms linear 163ms forwards;}.qSgszGCX_43{stroke-dasharray:7 9;stroke-dashoffset:8;}.start .qSgszGCX_43{animation:qSgszGCX_draw 800ms linear 166ms forwards;}.qSgszGCX_44{stroke-dasharray:7 9;stroke-dashoffset:8;}.start .qSgszGCX_44{animation:qSgszGCX_draw 800ms linear 170ms forwards;}.qSgszGCX_45{stroke-dasharray:7 9;stroke-dashoffset:8;}.start .qSgszGCX_45{animation:qSgszGCX_draw 800ms linear 174ms forwards;}.qSgszGCX_46{stroke-dasharray:7 9;stroke-dashoffset:8;}.start .qSgszGCX_46{animation:qSgszGCX_draw 800ms linear 178ms forwards;}.qSgszGCX_47{stroke-dasharray:7 9;stroke-dashoffset:8;}.start .qSgszGCX_47{animation:qSgszGCX_draw 800ms linear 182ms forwards;}.qSgszGCX_48{stroke-dasharray:7 9;stroke-dashoffset:8;}.start .qSgszGCX_48{animation:qSgszGCX_draw 800ms linear 186ms forwards;}.qSgszGCX_49{stroke-dasharray:7 9;stroke-dashoffset:8;}.start .qSgszGCX_49{animation:qSgszGCX_draw 800ms linear 190ms forwards;}.qSgszGCX_50{stroke-dasharray:7 9;stroke-dashoffset:8;}.start .qSgszGCX_50{animation:qSgszGCX_draw 800ms linear 194ms forwards;}.qSgszGCX_51{stroke-dasharray:7 9;stroke-dashoffset:8;}.start .qSgszGCX_51{animation:qSgszGCX_draw 800ms linear 198ms forwards;}.qSgszGCX_52{stroke-dasharray:7 9;stroke-dashoffset:8;}.start .qSgszGCX_52{animation:qSgszGCX_draw 800ms linear 201ms forwards;}.qSgszGCX_53{stroke-dasharray:7 9;stroke-dashoffset:8;}.start .qSgszGCX_53{animation:qSgszGCX_draw 800ms linear 205ms forwards;}.qSgszGCX_54{stroke-dasharray:7 9;stroke-dashoffset:8;}.start .qSgszGCX_54{animation:qSgszGCX_draw 800ms linear 209ms forwards;}.qSgszGCX_55{stroke-dasharray:7 9;stroke-dashoffset:8;}.start .qSgszGCX_55{animation:qSgszGCX_draw 800ms linear 213ms forwards;}.qSgszGCX_56{stroke-dasharray:7 9;stroke-dashoffset:8;}.start .qSgszGCX_56{animation:qSgszGCX_draw 800ms linear 217ms forwards;}.qSgszGCX_57{stroke-dasharray:7 9;stroke-dashoffset:8;}.start .qSgszGCX_57{animation:qSgszGCX_draw 800ms linear 221ms forwards;}.qSgszGCX_58{stroke-dasharray:7 9;stroke-dashoffset:8;}.start .qSgszGCX_58{animation:qSgszGCX_draw 800ms linear 225ms forwards;}.qSgszGCX_59{stroke-dasharray:7 9;stroke-dashoffset:8;}.start .qSgszGCX_59{animation:qSgszGCX_draw 800ms linear 229ms forwards;}.qSgszGCX_60{stroke-dasharray:7 9;stroke-dashoffset:8;}.start .qSgszGCX_60{animation:qSgszGCX_draw 800ms linear 233ms forwards;}.qSgszGCX_61{stroke-dasharray:7 9;stroke-dashoffset:8;}.start .qSgszGCX_61{animation:qSgszGCX_draw 800ms linear 236ms forwards;}.qSgszGCX_62{stroke-dasharray:7 9;stroke-dashoffset:8;}.start .qSgszGCX_62{animation:qSgszGCX_draw 800ms linear 240ms forwards;}.qSgszGCX_63{stroke-dasharray:7 9;stroke-dashoffset:8;}.start .qSgszGCX_63{animation:qSgszGCX_draw 800ms linear 244ms forwards;}.qSgszGCX_64{stroke-dasharray:7 9;stroke-dashoffset:8;}.start .qSgszGCX_64{animation:qSgszGCX_draw 800ms linear 248ms forwards;}.qSgszGCX_65{stroke-dasharray:7 9;stroke-dashoffset:8;}.start .qSgszGCX_65{animation:qSgszGCX_draw 800ms linear 252ms forwards;}.qSgszGCX_66{stroke-dasharray:7 9;stroke-dashoffset:8;}.start .qSgszGCX_66{animation:qSgszGCX_draw 800ms linear 256ms forwards;}.qSgszGCX_67{stroke-dasharray:7 9;stroke-dashoffset:8;}.start .qSgszGCX_67{animation:qSgszGCX_draw 800ms linear 260ms forwards;}.qSgszGCX_68{stroke-dasharray:7 9;stroke-dashoffset:8;}.start .qSgszGCX_68{animation:qSgszGCX_draw 800ms linear 264ms forwards;}.qSgszGCX_69{stroke-dasharray:7 9;stroke-dashoffset:8;}.start .qSgszGCX_69{animation:qSgszGCX_draw 800ms linear 267ms forwards;}.qSgszGCX_70{stroke-dasharray:7 9;stroke-dashoffset:8;}.start .qSgszGCX_70{animation:qSgszGCX_draw 800ms linear 271ms forwards;}.qSgszGCX_71{stroke-dasharray:7 9;stroke-dashoffset:8;}.start .qSgszGCX_71{animation:qSgszGCX_draw 800ms linear 275ms forwards;}.qSgszGCX_72{stroke-dasharray:7 9;stroke-dashoffset:8;}.start .qSgszGCX_72{animation:qSgszGCX_draw 800ms linear 279ms forwards;}.qSgszGCX_73{stroke-dasharray:7 9;stroke-dashoffset:8;}.start .qSgszGCX_73{animation:qSgszGCX_draw 800ms linear 283ms forwards;}.qSgszGCX_74{stroke-dasharray:7 9;stroke-dashoffset:8;}.start .qSgszGCX_74{animation:qSgszGCX_draw 800ms linear 287ms forwards;}.qSgszGCX_75{stroke-dasharray:7 9;stroke-dashoffset:8;}.start .qSgszGCX_75{animation:qSgszGCX_draw 800ms linear 291ms forwards;}.qSgszGCX_76{stroke-dasharray:7 9;stroke-dashoffset:8;}.start .qSgszGCX_76{animation:qSgszGCX_draw 800ms linear 295ms forwards;}.qSgszGCX_77{stroke-dasharray:7 9;stroke-dashoffset:8;}.start .qSgszGCX_77{animation:qSgszGCX_draw 800ms linear 299ms forwards;}.qSgszGCX_78{stroke-dasharray:7 9;stroke-dashoffset:8;}.start .qSgszGCX_78{animation:qSgszGCX_draw 800ms linear 302ms forwards;}.qSgszGCX_79{stroke-dasharray:7 9;stroke-dashoffset:8;}.start .qSgszGCX_79{animation:qSgszGCX_draw 800ms linear 306ms forwards;}.qSgszGCX_80{stroke-dasharray:7 9;stroke-dashoffset:8;}.start .qSgszGCX_80{animation:qSgszGCX_draw 800ms linear 310ms forwards;}.qSgszGCX_81{stroke-dasharray:7 9;stroke-dashoffset:8;}.start .qSgszGCX_81{animation:qSgszGCX_draw 800ms linear 314ms forwards;}.qSgszGCX_82{stroke-dasharray:7 9;stroke-dashoffset:8;}.start .qSgszGCX_82{animation:qSgszGCX_draw 800ms linear 318ms forwards;}.qSgszGCX_83{stroke-dasharray:7 9;stroke-dashoffset:8;}.start .qSgszGCX_83{animation:qSgszGCX_draw 800ms linear 322ms forwards;}.qSgszGCX_84{stroke-dasharray:7 9;stroke-dashoffset:8;}.start .qSgszGCX_84{animation:qSgszGCX_draw 800ms linear 326ms forwards;}.qSgszGCX_85{stroke-dasharray:7 9;stroke-dashoffset:8;}.start .qSgszGCX_85{animation:qSgszGCX_draw 800ms linear 330ms forwards;}.qSgszGCX_86{stroke-dasharray:7 9;stroke-dashoffset:8;}.start .qSgszGCX_86{animation:qSgszGCX_draw 800ms linear 333ms forwards;}.qSgszGCX_87{stroke-dasharray:7 9;stroke-dashoffset:8;}.start .qSgszGCX_87{animation:qSgszGCX_draw 800ms linear 337ms forwards;}.qSgszGCX_88{stroke-dasharray:7 9;stroke-dashoffset:8;}.start .qSgszGCX_88{animation:qSgszGCX_draw 800ms linear 341ms forwards;}.qSgszGCX_89{stroke-dasharray:7 9;stroke-dashoffset:8;}.start .qSgszGCX_89{animation:qSgszGCX_draw 800ms linear 345ms forwards;}.qSgszGCX_90{stroke-dasharray:7 9;stroke-dashoffset:8;}.start .qSgszGCX_90{animation:qSgszGCX_draw 800ms linear 349ms forwards;}.qSgszGCX_91{stroke-dasharray:7 9;stroke-dashoffset:8;}.start .qSgszGCX_91{animation:qSgszGCX_draw 800ms linear 353ms forwards;}.qSgszGCX_92{stroke-dasharray:7 9;stroke-dashoffset:8;}.start .qSgszGCX_92{animation:qSgszGCX_draw 800ms linear 357ms forwards;}.qSgszGCX_93{stroke-dasharray:7 9;stroke-dashoffset:8;}.start .qSgszGCX_93{animation:qSgszGCX_draw 800ms linear 361ms forwards;}.qSgszGCX_94{stroke-dasharray:7 9;stroke-dashoffset:8;}.start .qSgszGCX_94{animation:qSgszGCX_draw 800ms linear 365ms forwards;}.qSgszGCX_95{stroke-dasharray:7 9;stroke-dashoffset:8;}.start .qSgszGCX_95{animation:qSgszGCX_draw 800ms linear 368ms forwards;}.qSgszGCX_96{stroke-dasharray:7 9;stroke-dashoffset:8;}.start .qSgszGCX_96{animation:qSgszGCX_draw 800ms linear 372ms forwards;}.qSgszGCX_97{stroke-dasharray:7 9;stroke-dashoffset:8;}.start .qSgszGCX_97{animation:qSgszGCX_draw 800ms linear 376ms forwards;}.qSgszGCX_98{stroke-dasharray:7 9;stroke-dashoffset:8;}.start .qSgszGCX_98{animation:qSgszGCX_draw 800ms linear 380ms forwards;}.qSgszGCX_99{stroke-dasharray:98 100;stroke-dashoffset:99;}.start .qSgszGCX_99{animation:qSgszGCX_draw 800ms linear 384ms forwards;}.qSgszGCX_100{stroke-dasharray:47 49;stroke-dashoffset:48;}.start .qSgszGCX_100{animation:qSgszGCX_draw 800ms linear 388ms forwards;}.qSgszGCX_101{stroke-dasharray:68 70;stroke-dashoffset:69;}.start .qSgszGCX_101{animation:qSgszGCX_draw 800ms linear 392ms forwards;}.qSgszGCX_102{stroke-dasharray:47 49;stroke-dashoffset:48;}.start .qSgszGCX_102{animation:qSgszGCX_draw 800ms linear 396ms forwards;}.qSgszGCX_103{stroke-dasharray:47 49;stroke-dashoffset:48;}.start .qSgszGCX_103{animation:qSgszGCX_draw 800ms linear 400ms forwards;}@keyframes qSgszGCX_draw{100%{stroke-dashoffset:0;}}@keyframes qSgszGCX_fade{0%{stroke-opacity:1;}92.5925925925926%{stroke-opacity:1;}100%{stroke-opacity:0;}}</style></svg>