<svg xmlns="http://www.w3.org/2000/svg" viewBox="0 0 140.6 140.6" class="" id="experience" style=""><defs><style>#experience .cls-1,#experience .cls-4{fill:#fff;}#experience .cls-2{fill:#a5bac9;}#experience .cls-3,#experience .cls-6{fill:none;}#experience .cls-3{stroke:#d1dbe3;stroke-width:3px;}#experience .cls-3,#experience .cls-4,#experience .cls-6{stroke-miterlimit:10;}.cls-4,#experience .cls-6{stroke:#00acd8;stroke-width:4px;}#experience .cls-5{fill:#00acd8;}</style></defs><title>Home_Experience</title><g id="Layer_2_experience" data-name="Layer 2"><g id="_2_experience" data-name="2"><path class="cls-1 LaakzjVX_0" d="M0,70.3A70.3,70.3 0,1,1 140.6,70.3A70.3,70.3 0,1,1 0,70.3"></path><path class="cls-1 LaakzjVX_1" d="M0,70.3A70.3,70.3 0,1,1 140.6,70.3A70.3,70.3 0,1,1 0,70.3"></path><path class="cls-2 LaakzjVX_2" d="M62.55,124.63a2,2,0,0,1-1.7-2.26h0a2,2,0,0,1,2.26-1.7h0a2,2,0,0,1,1.7,2.26h0a2,2,0,0,1-2,1.72h0Zm13.34-1.72a2,2,0,0,1,1.7-2.26h0a2,2,0,0,1,2.26,1.7h0a2,2,0,0,1-1.69,2.26h0l-.29,0h0A2,2,0,0,1,75.89,122.91Zm14.59-3.69a2,2,0,0,1,1-2.65h0a2,2,0,0,1,2.65,1h0a2,2,0,0,1-1,2.65h0a2.12,2.12,0,0,1-.84.18h0A2,2,0,0,1,90.48,119.22Zm-56-7.4a2,2,0,0,1-.21-2.82h0a2,2,0,0,1,2.82-.2h0a2,2,0,0,1,.21,2.82h0a2,2,0,0,1-1.52.69h0A2,2,0,0,1,34.43,111.82Zm69-.27a2,2,0,0,1,.2-2.82h0a2,2,0,0,1,2.82.2h0a2,2,0,0,1-.2,2.82h0a2,2,0,0,1-1.31.49h0A2,2,0,0,1,103.43,111.55ZM24.18,100h0a2,2,0,0,1,.6-2.77h0a2,2,0,0,1,2.76.59h0a2,2,0,0,1-.59,2.77h0a2.06,2.06,0,0,1-1.09.32h0A2,2,0,0,1,24.18,100Zm89.53.51a2,2,0,0,1-.6-2.76h0a2,2,0,0,1,2.76-.6h0a2,2,0,0,1,.61,2.76h0a2,2,0,0,1-1.69.92h0A2,2,0,0,1,113.71,100.55Zm-96-14.69h0A2,2,0,0,1,19,83.37h0a2,2,0,0,1,2.48,1.35h0a2,2,0,0,1-1.35,2.49h0a2.24,2.24,0,0,1-.57.08h0A2,2,0,0,1,17.67,85.86Zm102.81,1.25a2,2,0,0,1-1.35-2.48h0a2,2,0,0,1,2.49-1.36h0A2,2,0,0,1,123,85.75h0A2,2,0,0,1,121,87.19h0A2.23,2.23,0,0,1,120.48,87.11Zm-105-16.7a2,2,0,0,1,2-2h0a2,2,0,0,1,2,2h0a2,2,0,0,1-2,2h0A2,2,0,0,1,15.43,70.41Zm3.53-13A2,2,0,0,1,17.6,55h0a2,2,0,0,1,2.48-1.36h0a2,2,0,0,1,1.37,2.48h0a2,2,0,0,1-1.92,1.44h0A1.85,1.85,0,0,1,19,57.43Zm5.71-13.92a2,2,0,0,1-.61-2.77h0a2,2,0,0,1,2.77-.6h0a2,2,0,0,1,.6,2.76h0a2,2,0,0,1-1.69.92h0A2,2,0,0,1,24.67,43.51Zm9.4-11.77a2,2,0,0,1,.19-2.82h0a2,2,0,0,1,2.82.2h0a2,2,0,0,1-.19,2.82h0a2,2,0,0,1-1.31.49h0A2,2,0,0,1,34.07,31.74Zm12.32-8.65a2,2,0,0,1,1-2.65h0a2,2,0,0,1,2.66,1h0a2,2,0,0,1-1,2.65h0a1.8,1.8,0,0,1-.84.18h0A2,2,0,0,1,46.39,23.09Zm14.25-4.82A2,2,0,0,1,62.33,16h0a2,2,0,0,1,2.27,1.7h0A2,2,0,0,1,62.91,20h0a1.46,1.46,0,0,1-.29,0h0A2,2,0,0,1,60.64,18.27Zm16.74,1.65a2,2,0,0,1-1.7-2.26h0A2,2,0,0,1,77.94,16h0a2,2,0,0,1,1.7,2.26h0a2,2,0,0,1-2,1.72h0Z"></path><path class="cls-3 LaakzjVX_3" d="M49.04,76.2L49.04,36.22"></path><path class="cls-2 LaakzjVX_4" d="M110.14,93.49A1,1 0,1,1 112.14,93.49A1,1 0,1,1 110.14,93.49"></path><path class="cls-2 LaakzjVX_5" d="M106.14,93.49A1,1 0,1,1 108.14,93.49A1,1 0,1,1 106.14,93.49"></path><path class="cls-2 LaakzjVX_6" d="M106.14,97.49A1,1 0,1,1 108.14,97.49A1,1 0,1,1 106.14,97.49"></path><path class="cls-2 LaakzjVX_7" d="M102.14,93.49A1,1 0,1,1 104.14,93.49A1,1 0,1,1 102.14,93.49"></path><path class="cls-2 LaakzjVX_8" d="M98.14,93.49A1,1 0,1,1 100.14,93.49A1,1 0,1,1 98.14,93.49"></path><path class="cls-2 LaakzjVX_9" d="M102.14,97.49A1,1 0,1,1 104.14,97.49A1,1 0,1,1 102.14,97.49"></path><path class="cls-2 LaakzjVX_10" d="M98.14,97.49A1,1 0,1,1 100.14,97.49A1,1 0,1,1 98.14,97.49"></path><path class="cls-2 LaakzjVX_11" d="M102.14,101.62A1,1 0,1,1 104.14,101.62A1,1 0,1,1 102.14,101.62"></path><path class="cls-2 LaakzjVX_12" d="M98.14,101.62A1,1 0,1,1 100.14,101.62A1,1 0,1,1 98.14,101.62"></path><path class="cls-2 LaakzjVX_13" d="M98.14,105.62A1,1 0,1,1 100.14,105.62A1,1 0,1,1 98.14,105.62"></path><path class="cls-2 LaakzjVX_14" d="M94.14,93.49A1,1 0,1,1 96.14,93.49A1,1 0,1,1 94.14,93.49"></path><path class="cls-2 LaakzjVX_15" d="M90.14,93.49A1,1 0,1,1 92.14,93.49A1,1 0,1,1 90.14,93.49"></path><path class="cls-2 LaakzjVX_16" d="M94.14,97.49A1,1 0,1,1 96.14,97.49A1,1 0,1,1 94.14,97.49"></path><path class="cls-2 LaakzjVX_17" d="M90.14,97.49A1,1 0,1,1 92.14,97.49A1,1 0,1,1 90.14,97.49"></path><path class="cls-2 LaakzjVX_18" d="M86.14,93.49A1,1 0,1,1 88.14,93.49A1,1 0,1,1 86.14,93.49"></path><path class="cls-2 LaakzjVX_19" d="M82.14,93.49A1,1 0,1,1 84.14,93.49A1,1 0,1,1 82.14,93.49"></path><path class="cls-2 LaakzjVX_20" d="M86.14,97.49A1,1 0,1,1 88.14,97.49A1,1 0,1,1 86.14,97.49"></path><path class="cls-2 LaakzjVX_21" d="M82.14,97.49A1,1 0,1,1 84.14,97.49A1,1 0,1,1 82.14,97.49"></path><path class="cls-2 LaakzjVX_22" d="M94.14,101.62A1,1 0,1,1 96.14,101.62A1,1 0,1,1 94.14,101.62"></path><path class="cls-2 LaakzjVX_23" d="M94.14,105.62A1,1 0,1,1 96.14,105.62A1,1 0,1,1 94.14,105.62"></path><path class="cls-2 LaakzjVX_24" d="M90.14,101.62A1,1 0,1,1 92.14,101.62A1,1 0,1,1 90.14,101.62"></path><path class="cls-2 LaakzjVX_25" d="M90.14,105.62A1,1 0,1,1 92.14,105.62A1,1 0,1,1 90.14,105.62"></path><path class="cls-2 LaakzjVX_26" d="M94.14,109.62A1,1 0,1,1 96.14,109.62A1,1 0,1,1 94.14,109.62"></path><path class="cls-2 LaakzjVX_27" d="M90.14,109.62A1,1 0,1,1 92.14,109.62A1,1 0,1,1 90.14,109.62"></path><path class="cls-2 LaakzjVX_28" d="M86.14,101.62A1,1 0,1,1 88.14,101.62A1,1 0,1,1 86.14,101.62"></path><path class="cls-2 LaakzjVX_29" d="M86.14,105.62A1,1 0,1,1 88.14,105.62A1,1 0,1,1 86.14,105.62"></path><path class="cls-2 LaakzjVX_30" d="M82.14,101.62A1,1 0,1,1 84.14,101.62A1,1 0,1,1 82.14,101.62"></path><path class="cls-2 LaakzjVX_31" d="M82.14,105.62A1,1 0,1,1 84.14,105.62A1,1 0,1,1 82.14,105.62"></path><path class="cls-2 LaakzjVX_32" d="M86.14,109.62A1,1 0,1,1 88.14,109.62A1,1 0,1,1 86.14,109.62"></path><path class="cls-2 LaakzjVX_33" d="M82.14,109.62A1,1 0,1,1 84.14,109.62A1,1 0,1,1 82.14,109.62"></path><path class="cls-2 LaakzjVX_34" d="M86.14,113.62A1,1 0,1,1 88.14,113.62A1,1 0,1,1 86.14,113.62"></path><path class="cls-2 LaakzjVX_35" d="M82.14,113.62A1,1 0,1,1 84.14,113.62A1,1 0,1,1 82.14,113.62"></path><path class="cls-2 LaakzjVX_36" d="M78.14,93.49A1,1 0,1,1 80.14,93.49A1,1 0,1,1 78.14,93.49"></path><path class="cls-2 LaakzjVX_37" d="M74.14,93.49A1,1 0,1,1 76.14,93.49A1,1 0,1,1 74.14,93.49"></path><path class="cls-2 LaakzjVX_38" d="M78.14,97.49A1,1 0,1,1 80.14,97.49A1,1 0,1,1 78.14,97.49"></path><path class="cls-2 LaakzjVX_39" d="M74.14,97.49A1,1 0,1,1 76.14,97.49A1,1 0,1,1 74.14,97.49"></path><path class="cls-2 LaakzjVX_40" d="M70.14,93.49A1,1 0,1,1 72.14,93.49A1,1 0,1,1 70.14,93.49"></path><path class="cls-2 LaakzjVX_41" d="M66.14,93.49A1,1 0,1,1 68.14,93.49A1,1 0,1,1 66.14,93.49"></path><path class="cls-2 LaakzjVX_42" d="M70.14,97.49A1,1 0,1,1 72.14,97.49A1,1 0,1,1 70.14,97.49"></path><path class="cls-2 LaakzjVX_43" d="M66.14,97.49A1,1 0,1,1 68.14,97.49A1,1 0,1,1 66.14,97.49"></path><path class="cls-2 LaakzjVX_44" d="M78.14,101.62A1,1 0,1,1 80.14,101.62A1,1 0,1,1 78.14,101.62"></path><path class="cls-2 LaakzjVX_45" d="M78.14,105.62A1,1 0,1,1 80.14,105.62A1,1 0,1,1 78.14,105.62"></path><path class="cls-2 LaakzjVX_46" d="M74.14,101.62A1,1 0,1,1 76.14,101.62A1,1 0,1,1 74.14,101.62"></path><path class="cls-2 LaakzjVX_47" d="M74.14,105.62A1,1 0,1,1 76.14,105.62A1,1 0,1,1 74.14,105.62"></path><path class="cls-2 LaakzjVX_48" d="M78.14,109.62A1,1 0,1,1 80.14,109.62A1,1 0,1,1 78.14,109.62"></path><path class="cls-2 LaakzjVX_49" d="M74.14,109.62A1,1 0,1,1 76.14,109.62A1,1 0,1,1 74.14,109.62"></path><path class="cls-2 LaakzjVX_50" d="M78.14,113.62A1,1 0,1,1 80.14,113.62A1,1 0,1,1 78.14,113.62"></path><path class="cls-2 LaakzjVX_51" d="M74.14,113.62A1,1 0,1,1 76.14,113.62A1,1 0,1,1 74.14,113.62"></path><path class="cls-2 LaakzjVX_52" d="M70.14,101.62A1,1 0,1,1 72.14,101.62A1,1 0,1,1 70.14,101.62"></path><path class="cls-2 LaakzjVX_53" d="M70.14,105.62A1,1 0,1,1 72.14,105.62A1,1 0,1,1 70.14,105.62"></path><path class="cls-2 LaakzjVX_54" d="M66.14,101.62A1,1 0,1,1 68.14,101.62A1,1 0,1,1 66.14,101.62"></path><path class="cls-2 LaakzjVX_55" d="M66.14,105.62A1,1 0,1,1 68.14,105.62A1,1 0,1,1 66.14,105.62"></path><path class="cls-2 LaakzjVX_56" d="M70.14,109.62A1,1 0,1,1 72.14,109.62A1,1 0,1,1 70.14,109.62"></path><path class="cls-2 LaakzjVX_57" d="M66.14,109.62A1,1 0,1,1 68.14,109.62A1,1 0,1,1 66.14,109.62"></path><path class="cls-2 LaakzjVX_58" d="M70.14,113.62A1,1 0,1,1 72.14,113.62A1,1 0,1,1 70.14,113.62"></path><path class="cls-2 LaakzjVX_59" d="M66.14,113.62A1,1 0,1,1 68.14,113.62A1,1 0,1,1 66.14,113.62"></path><path class="cls-2 LaakzjVX_60" d="M62.14,93.49A1,1 0,1,1 64.14,93.49A1,1 0,1,1 62.14,93.49"></path><path class="cls-2 LaakzjVX_61" d="M58.14,93.49A1,1 0,1,1 60.14,93.49A1,1 0,1,1 58.14,93.49"></path><path class="cls-2 LaakzjVX_62" d="M62.14,97.49A1,1 0,1,1 64.14,97.49A1,1 0,1,1 62.14,97.49"></path><path class="cls-2 LaakzjVX_63" d="M58.14,97.49A1,1 0,1,1 60.14,97.49A1,1 0,1,1 58.14,97.49"></path><path class="cls-2 LaakzjVX_64" d="M62.14,101.62A1,1 0,1,1 64.14,101.62A1,1 0,1,1 62.14,101.62"></path><path class="cls-2 LaakzjVX_65" d="M62.14,105.62A1,1 0,1,1 64.14,105.62A1,1 0,1,1 62.14,105.62"></path><path class="cls-2 LaakzjVX_66" d="M58.14,101.62A1,1 0,1,1 60.14,101.62A1,1 0,1,1 58.14,101.62"></path><path class="cls-2 LaakzjVX_67" d="M58.14,105.62A1,1 0,1,1 60.14,105.62A1,1 0,1,1 58.14,105.62"></path><path class="cls-2 LaakzjVX_68" d="M62.14,109.62A1,1 0,1,1 64.14,109.62A1,1 0,1,1 62.14,109.62"></path><path class="cls-2 LaakzjVX_69" d="M58.14,109.62A1,1 0,1,1 60.14,109.62A1,1 0,1,1 58.14,109.62"></path><path class="cls-2 LaakzjVX_70" d="M62.14,113.62A1,1 0,1,1 64.14,113.62A1,1 0,1,1 62.14,113.62"></path><path class="cls-2 LaakzjVX_71" d="M58.14,113.62A1,1 0,1,1 60.14,113.62A1,1 0,1,1 58.14,113.62"></path><path class="cls-2 LaakzjVX_72" d="M35.22,93.85A1,1 0,1,1 37.22,93.85A1,1 0,1,1 35.22,93.85"></path><path class="cls-2 LaakzjVX_73" d="M35.22,97.85A1,1 0,1,1 37.22,97.85A1,1 0,1,1 35.22,97.85"></path><path class="cls-2 LaakzjVX_74" d="M35.22,101.98A1,1 0,1,1 37.22,101.98A1,1 0,1,1 35.22,101.98"></path><path class="cls-2 LaakzjVX_75" d="M31.22,93.85A1,1 0,1,1 33.22,93.85A1,1 0,1,1 31.22,93.85"></path><path class="cls-2 LaakzjVX_76" d="M31.22,97.85A1,1 0,1,1 33.22,97.85A1,1 0,1,1 31.22,97.85"></path><path class="cls-2 LaakzjVX_77" d="M39.22,93.85A1,1 0,1,1 41.22,93.85A1,1 0,1,1 39.22,93.85"></path><path class="cls-2 LaakzjVX_78" d="M39.22,97.85A1,1 0,1,1 41.22,97.85A1,1 0,1,1 39.22,97.85"></path><path class="cls-2 LaakzjVX_79" d="M39.22,101.98A1,1 0,1,1 41.22,101.98A1,1 0,1,1 39.22,101.98"></path><path class="cls-4 LaakzjVX_80" d="M45.61,32.67L45.61,119.73"></path><path class="cls-5 LaakzjVX_81" d="M85.54,49.29c-.46.34-.93.71-1.4,1.11s-1.1,1-1.59,1.43c.21.19.41.39.6.58a23.42,23.42,0,0,1,4.31,6.15l3.84-.17a27.42,27.42,0,0,0-5.73-9.08Z"></path><path class="cls-5 LaakzjVX_82" d="M81.5,52.88a20.94,20.94,0,0,1,2,2.1l.38.46a23,23,0,0,1,2,3.19L77.58,59a23,23,0,0,1,1.74-3.35l.33-.49A20,20,0,0,1,81.5,52.88Z"></path><path class="cls-5 LaakzjVX_83" d="M65.87,40.47,67.63,45a21.13,21.13,0,0,1,2.36.36,23.29,23.29,0,0,1,6.8,2.55l.69-.76A28.38,28.38,0,0,1,80,44.86,37.24,37.24,0,0,0,65.87,40.47Z"></path><path class="cls-5 LaakzjVX_84" d="M68.19,46.46l1.14,2.94a21.06,21.06,0,0,1,4.8,2.05A28.9,28.9,0,0,1,75.88,49,22,22,0,0,0,68.19,46.46Z"></path><path class="cls-5 LaakzjVX_85" d="M96,39.15a37.14,37.14,0,0,0-13.77,5.61A26.91,26.91,0,0,0,72.14,59.22s2.58-.09,3.88-.16a23.19,23.19,0,0,1,7.2-9.71,25.49,25.49,0,0,1,4.45-3.05,24.21,24.21,0,0,1,4.47-1.88,19.17,19.17,0,0,1,2.52-.61Z"></path><path class="cls-5 LaakzjVX_86" d="M94.21,45.32a22.12,22.12,0,0,0-7.52,3.2,29,29,0,0,1,2,2.3,20.08,20.08,0,0,1,4.67-2.47Z"></path><path class="cls-5 LaakzjVX_87" d="M43.2,33.5A2.72,2.72 0,1,1 48.64,33.5A2.72,2.72 0,1,1 43.2,33.5"></path><path class="cls-3 LaakzjVX_88" d="M50.86,121V81.45s26.92-11.59,66-3.84"></path><path class="cls-6 LaakzjVX_89" d="M115.42,70.6c-41.92-6.3-69.81,7-69.81,7V36.79s31-19.16,69.81-7.44Z"></path></g></g><style data-made-with="vivus-instant">.LaakzjVX_0{stroke-dasharray:442 444;stroke-dashoffset:443;}.start .LaakzjVX_0{animation:LaakzjVX_draw 800ms linear 0ms forwards;}.LaakzjVX_1{stroke-dasharray:442 444;stroke-dashoffset:443;}.start .LaakzjVX_1{animation:LaakzjVX_draw 800ms linear 4ms forwards;}.LaakzjVX_2{stroke-dasharray:202 204;stroke-dashoffset:203;}.start .LaakzjVX_2{animation:LaakzjVX_draw 800ms linear 8ms forwards;}.LaakzjVX_3{stroke-dasharray:40 42;stroke-dashoffset:41;}.start .LaakzjVX_3{animation:LaakzjVX_draw 800ms linear 13ms forwards;}.LaakzjVX_4{stroke-dasharray:7 9;stroke-dashoffset:8;}.start .LaakzjVX_4{animation:LaakzjVX_draw 800ms linear 17ms forwards;}.LaakzjVX_5{stroke-dasharray:7 9;stroke-dashoffset:8;}.start .LaakzjVX_5{animation:LaakzjVX_draw 800ms linear 22ms forwards;}.LaakzjVX_6{stroke-dasharray:7 9;stroke-dashoffset:8;}.start .LaakzjVX_6{animation:LaakzjVX_draw 800ms linear 26ms forwards;}.LaakzjVX_7{stroke-dasharray:7 9;stroke-dashoffset:8;}.start .LaakzjVX_7{animation:LaakzjVX_draw 800ms linear 31ms forwards;}.LaakzjVX_8{stroke-dasharray:7 9;stroke-dashoffset:8;}.start .LaakzjVX_8{animation:LaakzjVX_draw 800ms linear 35ms forwards;}.LaakzjVX_9{stroke-dasharray:7 9;stroke-dashoffset:8;}.start .LaakzjVX_9{animation:LaakzjVX_draw 800ms linear 40ms forwards;}.LaakzjVX_10{stroke-dasharray:7 9;stroke-dashoffset:8;}.start .LaakzjVX_10{animation:LaakzjVX_draw 800ms linear 44ms forwards;}.LaakzjVX_11{stroke-dasharray:7 9;stroke-dashoffset:8;}.start .LaakzjVX_11{animation:LaakzjVX_draw 800ms linear 49ms forwards;}.LaakzjVX_12{stroke-dasharray:7 9;stroke-dashoffset:8;}.start .LaakzjVX_12{animation:LaakzjVX_draw 800ms linear 53ms forwards;}.LaakzjVX_13{stroke-dasharray:7 9;stroke-dashoffset:8;}.start .LaakzjVX_13{animation:LaakzjVX_draw 800ms linear 58ms forwards;}.LaakzjVX_14{stroke-dasharray:7 9;stroke-dashoffset:8;}.start .LaakzjVX_14{animation:LaakzjVX_draw 800ms linear 62ms forwards;}.LaakzjVX_15{stroke-dasharray:7 9;stroke-dashoffset:8;}.start .LaakzjVX_15{animation:LaakzjVX_draw 800ms linear 67ms forwards;}.LaakzjVX_16{stroke-dasharray:7 9;stroke-dashoffset:8;}.start .LaakzjVX_16{animation:LaakzjVX_draw 800ms linear 71ms forwards;}.LaakzjVX_17{stroke-dasharray:7 9;stroke-dashoffset:8;}.start .LaakzjVX_17{animation:LaakzjVX_draw 800ms linear 76ms forwards;}.LaakzjVX_18{stroke-dasharray:7 9;stroke-dashoffset:8;}.start .LaakzjVX_18{animation:LaakzjVX_draw 800ms linear 80ms forwards;}.LaakzjVX_19{stroke-dasharray:7 9;stroke-dashoffset:8;}.start .LaakzjVX_19{animation:LaakzjVX_draw 800ms linear 85ms forwards;}.LaakzjVX_20{stroke-dasharray:7 9;stroke-dashoffset:8;}.start .LaakzjVX_20{animation:LaakzjVX_draw 800ms linear 89ms forwards;}.LaakzjVX_21{stroke-dasharray:7 9;stroke-dashoffset:8;}.start .LaakzjVX_21{animation:LaakzjVX_draw 800ms linear 94ms forwards;}.LaakzjVX_22{stroke-dasharray:7 9;stroke-dashoffset:8;}.start .LaakzjVX_22{animation:LaakzjVX_draw 800ms linear 98ms forwards;}.LaakzjVX_23{stroke-dasharray:7 9;stroke-dashoffset:8;}.start .LaakzjVX_23{animation:LaakzjVX_draw 800ms linear 103ms forwards;}.LaakzjVX_24{stroke-dasharray:7 9;stroke-dashoffset:8;}.start .LaakzjVX_24{animation:LaakzjVX_draw 800ms linear 107ms forwards;}.LaakzjVX_25{stroke-dasharray:7 9;stroke-dashoffset:8;}.start .LaakzjVX_25{animation:LaakzjVX_draw 800ms linear 112ms forwards;}.LaakzjVX_26{stroke-dasharray:7 9;stroke-dashoffset:8;}.start .LaakzjVX_26{animation:LaakzjVX_draw 800ms linear 116ms forwards;}.LaakzjVX_27{stroke-dasharray:7 9;stroke-dashoffset:8;}.start .LaakzjVX_27{animation:LaakzjVX_draw 800ms linear 121ms forwards;}.LaakzjVX_28{stroke-dasharray:7 9;stroke-dashoffset:8;}.start .LaakzjVX_28{animation:LaakzjVX_draw 800ms linear 125ms forwards;}.LaakzjVX_29{stroke-dasharray:7 9;stroke-dashoffset:8;}.start .LaakzjVX_29{animation:LaakzjVX_draw 800ms linear 130ms forwards;}.LaakzjVX_30{stroke-dasharray:7 9;stroke-dashoffset:8;}.start .LaakzjVX_30{animation:LaakzjVX_draw 800ms linear 134ms forwards;}.LaakzjVX_31{stroke-dasharray:7 9;stroke-dashoffset:8;}.start .LaakzjVX_31{animation:LaakzjVX_draw 800ms linear 139ms forwards;}.LaakzjVX_32{stroke-dasharray:7 9;stroke-dashoffset:8;}.start .LaakzjVX_32{animation:LaakzjVX_draw 800ms linear 143ms forwards;}.LaakzjVX_33{stroke-dasharray:7 9;stroke-dashoffset:8;}.start .LaakzjVX_33{animation:LaakzjVX_draw 800ms linear 148ms forwards;}.LaakzjVX_34{stroke-dasharray:7 9;stroke-dashoffset:8;}.start .LaakzjVX_34{animation:LaakzjVX_draw 800ms linear 152ms forwards;}.LaakzjVX_35{stroke-dasharray:7 9;stroke-dashoffset:8;}.start .LaakzjVX_35{animation:LaakzjVX_draw 800ms linear 157ms forwards;}.LaakzjVX_36{stroke-dasharray:7 9;stroke-dashoffset:8;}.start .LaakzjVX_36{animation:LaakzjVX_draw 800ms linear 161ms forwards;}.LaakzjVX_37{stroke-dasharray:7 9;stroke-dashoffset:8;}.start .LaakzjVX_37{animation:LaakzjVX_draw 800ms linear 166ms forwards;}.LaakzjVX_38{stroke-dasharray:7 9;stroke-dashoffset:8;}.start .LaakzjVX_38{animation:LaakzjVX_draw 800ms linear 170ms forwards;}.LaakzjVX_39{stroke-dasharray:7 9;stroke-dashoffset:8;}.start .LaakzjVX_39{animation:LaakzjVX_draw 800ms linear 175ms forwards;}.LaakzjVX_40{stroke-dasharray:7 9;stroke-dashoffset:8;}.start .LaakzjVX_40{animation:LaakzjVX_draw 800ms linear 179ms forwards;}.LaakzjVX_41{stroke-dasharray:7 9;stroke-dashoffset:8;}.start .LaakzjVX_41{animation:LaakzjVX_draw 800ms linear 184ms forwards;}.LaakzjVX_42{stroke-dasharray:7 9;stroke-dashoffset:8;}.start .LaakzjVX_42{animation:LaakzjVX_draw 800ms linear 188ms forwards;}.LaakzjVX_43{stroke-dasharray:7 9;stroke-dashoffset:8;}.start .LaakzjVX_43{animation:LaakzjVX_draw 800ms linear 193ms forwards;}.LaakzjVX_44{stroke-dasharray:7 9;stroke-dashoffset:8;}.start .LaakzjVX_44{animation:LaakzjVX_draw 800ms linear 197ms forwards;}.LaakzjVX_45{stroke-dasharray:7 9;stroke-dashoffset:8;}.start .LaakzjVX_45{animation:LaakzjVX_draw 800ms linear 202ms forwards;}.LaakzjVX_46{stroke-dasharray:7 9;stroke-dashoffset:8;}.start .LaakzjVX_46{animation:LaakzjVX_draw 800ms linear 206ms forwards;}.LaakzjVX_47{stroke-dasharray:7 9;stroke-dashoffset:8;}.start .LaakzjVX_47{animation:LaakzjVX_draw 800ms linear 211ms forwards;}.LaakzjVX_48{stroke-dasharray:7 9;stroke-dashoffset:8;}.start .LaakzjVX_48{animation:LaakzjVX_draw 800ms linear 215ms forwards;}.LaakzjVX_49{stroke-dasharray:7 9;stroke-dashoffset:8;}.start .LaakzjVX_49{animation:LaakzjVX_draw 800ms linear 220ms forwards;}.LaakzjVX_50{stroke-dasharray:7 9;stroke-dashoffset:8;}.start .LaakzjVX_50{animation:LaakzjVX_draw 800ms linear 224ms forwards;}.LaakzjVX_51{stroke-dasharray:7 9;stroke-dashoffset:8;}.start .LaakzjVX_51{animation:LaakzjVX_draw 800ms linear 229ms forwards;}.LaakzjVX_52{stroke-dasharray:7 9;stroke-dashoffset:8;}.start .LaakzjVX_52{animation:LaakzjVX_draw 800ms linear 233ms forwards;}.LaakzjVX_53{stroke-dasharray:7 9;stroke-dashoffset:8;}.start .LaakzjVX_53{animation:LaakzjVX_draw 800ms linear 238ms forwards;}.LaakzjVX_54{stroke-dasharray:7 9;stroke-dashoffset:8;}.start .LaakzjVX_54{animation:LaakzjVX_draw 800ms linear 242ms forwards;}.LaakzjVX_55{stroke-dasharray:7 9;stroke-dashoffset:8;}.start .LaakzjVX_55{animation:LaakzjVX_draw 800ms linear 247ms forwards;}.LaakzjVX_56{stroke-dasharray:7 9;stroke-dashoffset:8;}.start .LaakzjVX_56{animation:LaakzjVX_draw 800ms linear 251ms forwards;}.LaakzjVX_57{stroke-dasharray:7 9;stroke-dashoffset:8;}.start .LaakzjVX_57{animation:LaakzjVX_draw 800ms linear 256ms forwards;}.LaakzjVX_58{stroke-dasharray:7 9;stroke-dashoffset:8;}.start .LaakzjVX_58{animation:LaakzjVX_draw 800ms linear 260ms forwards;}.LaakzjVX_59{stroke-dasharray:7 9;stroke-dashoffset:8;}.start .LaakzjVX_59{animation:LaakzjVX_draw 800ms linear 265ms forwards;}.LaakzjVX_60{stroke-dasharray:7 9;stroke-dashoffset:8;}.start .LaakzjVX_60{animation:LaakzjVX_draw 800ms linear 269ms forwards;}.LaakzjVX_61{stroke-dasharray:7 9;stroke-dashoffset:8;}.start .LaakzjVX_61{animation:LaakzjVX_draw 800ms linear 274ms forwards;}.LaakzjVX_62{stroke-dasharray:7 9;stroke-dashoffset:8;}.start .LaakzjVX_62{animation:LaakzjVX_draw 800ms linear 278ms forwards;}.LaakzjVX_63{stroke-dasharray:7 9;stroke-dashoffset:8;}.start .LaakzjVX_63{animation:LaakzjVX_draw 800ms linear 283ms forwards;}.LaakzjVX_64{stroke-dasharray:7 9;stroke-dashoffset:8;}.start .LaakzjVX_64{animation:LaakzjVX_draw 800ms linear 287ms forwards;}.LaakzjVX_65{stroke-dasharray:7 9;stroke-dashoffset:8;}.start .LaakzjVX_65{animation:LaakzjVX_draw 800ms linear 292ms forwards;}.LaakzjVX_66{stroke-dasharray:7 9;stroke-dashoffset:8;}.start .LaakzjVX_66{animation:LaakzjVX_draw 800ms linear 296ms forwards;}.LaakzjVX_67{stroke-dasharray:7 9;stroke-dashoffset:8;}.start .LaakzjVX_67{animation:LaakzjVX_draw 800ms linear 301ms forwards;}.LaakzjVX_68{stroke-dasharray:7 9;stroke-dashoffset:8;}.start .LaakzjVX_68{animation:LaakzjVX_draw 800ms linear 305ms forwards;}.LaakzjVX_69{stroke-dasharray:7 9;stroke-dashoffset:8;}.start .LaakzjVX_69{animation:LaakzjVX_draw 800ms linear 310ms forwards;}.LaakzjVX_70{stroke-dasharray:7 9;stroke-dashoffset:8;}.start .LaakzjVX_70{animation:LaakzjVX_draw 800ms linear 314ms forwards;}.LaakzjVX_71{stroke-dasharray:7 9;stroke-dashoffset:8;}.start .LaakzjVX_71{animation:LaakzjVX_draw 800ms linear 319ms forwards;}.LaakzjVX_72{stroke-dasharray:7 9;stroke-dashoffset:8;}.start .LaakzjVX_72{animation:LaakzjVX_draw 800ms linear 323ms forwards;}.LaakzjVX_73{stroke-dasharray:7 9;stroke-dashoffset:8;}.start .LaakzjVX_73{animation:LaakzjVX_draw 800ms linear 328ms forwards;}.LaakzjVX_74{stroke-dasharray:7 9;stroke-dashoffset:8;}.start .LaakzjVX_74{animation:LaakzjVX_draw 800ms linear 332ms forwards;}.LaakzjVX_75{stroke-dasharray:7 9;stroke-dashoffset:8;}.start .LaakzjVX_75{animation:LaakzjVX_draw 800ms linear 337ms forwards;}.LaakzjVX_76{stroke-dasharray:7 9;stroke-dashoffset:8;}.start .LaakzjVX_76{animation:LaakzjVX_draw 800ms linear 341ms forwards;}.LaakzjVX_77{stroke-dasharray:7 9;stroke-dashoffset:8;}.start .LaakzjVX_77{animation:LaakzjVX_draw 800ms linear 346ms forwards;}.LaakzjVX_78{stroke-dasharray:7 9;stroke-dashoffset:8;}.start .LaakzjVX_78{animation:LaakzjVX_draw 800ms linear 350ms forwards;}.LaakzjVX_79{stroke-dasharray:7 9;stroke-dashoffset:8;}.start .LaakzjVX_79{animation:LaakzjVX_draw 800ms linear 355ms forwards;}.LaakzjVX_80{stroke-dasharray:88 90;stroke-dashoffset:89;}.start .LaakzjVX_80{animation:LaakzjVX_draw 800ms linear 359ms forwards;}.LaakzjVX_81{stroke-dasharray:27 29;stroke-dashoffset:28;}.start .LaakzjVX_81{animation:LaakzjVX_draw 800ms linear 364ms forwards;}.LaakzjVX_82{stroke-dasharray:23 25;stroke-dashoffset:24;}.start .LaakzjVX_82{animation:LaakzjVX_draw 800ms linear 368ms forwards;}.LaakzjVX_83{stroke-dasharray:34 36;stroke-dashoffset:35;}.start .LaakzjVX_83{animation:LaakzjVX_draw 800ms linear 373ms forwards;}.LaakzjVX_84{stroke-dasharray:20 22;stroke-dashoffset:21;}.start .LaakzjVX_84{animation:LaakzjVX_draw 800ms linear 377ms forwards;}.LaakzjVX_85{stroke-dasharray:67 69;stroke-dashoffset:68;}.start .LaakzjVX_85{animation:LaakzjVX_draw 800ms linear 382ms forwards;}.LaakzjVX_86{stroke-dasharray:20 22;stroke-dashoffset:21;}.start .LaakzjVX_86{animation:LaakzjVX_draw 800ms linear 386ms forwards;}.LaakzjVX_87{stroke-dasharray:18 20;stroke-dashoffset:19;}.start .LaakzjVX_87{animation:LaakzjVX_draw 800ms linear 391ms forwards;}.LaakzjVX_88{stroke-dasharray:107 109;stroke-dashoffset:108;}.start .LaakzjVX_88{animation:LaakzjVX_draw 800ms linear 395ms forwards;}.LaakzjVX_89{stroke-dasharray:226 228;stroke-dashoffset:227;}.start .LaakzjVX_89{animation:LaakzjVX_draw 800ms linear 400ms forwards;}@keyframes LaakzjVX_draw{100%{stroke-dashoffset:0;}}@keyframes LaakzjVX_fade{0%{stroke-opacity:1;}92.5925925925926%{stroke-opacity:1;}100%{stroke-opacity:0;}}</style></svg>