<svg xmlns="http://www.w3.org/2000/svg" xmlns:xlink="http://www.w3.org/1999/xlink" viewBox="0 0 140.6 140.6" class="" style="" id="commitment"><defs><style>#commitment .cls-1,#commitment .cls-5{fill:none;}#commitment .cls-2{fill:#fff;}#commitment .cls-3{fill:#a5bac9;}#commitment .cls-4{clip-path:url(#clip-path);}#commitment .cls-5{stroke:#00acd8;stroke-miterlimit:10;stroke-width:4px;}#commitment .cls-6{fill:#d1dbe3;}#commitment .cls-7{fill:#c8d5de;}</style><clipPath id="clip-path"><path class="cls-1 CLNWUNEJ_0" d="M18.15,70.83A52.99,52.99 0,1,1 124.13,70.83A52.99,52.99 0,1,1 18.15,70.83"></path></clipPath></defs><title>Home_Commitment</title><g id="Layer_2_commitment" data-name="Layer 2"><g id="_2_commitment" data-name="2"><path class="cls-2 CLNWUNEJ_1" d="M0,70.3A70.3,70.3 0,1,1 140.6,70.3A70.3,70.3 0,1,1 0,70.3"></path><path class="cls-2 CLNWUNEJ_2" d="M0,70.3A70.3,70.3 0,1,1 140.6,70.3A70.3,70.3 0,1,1 0,70.3"></path><path class="cls-3 CLNWUNEJ_3" d="M15.43,70.41a2,2,0,0,1,2-2h0a2,2,0,0,1,2,2h0a2,2,0,0,1-2,2h0A2,2,0,0,1,15.43,70.41Zm3.53-13A2,2,0,0,1,17.6,55h0a2,2,0,0,1,2.48-1.36h0a2,2,0,0,1,1.37,2.48h0a2,2,0,0,1-1.92,1.44h0A1.85,1.85,0,0,1,19,57.43Zm100.11-1.65a2,2,0,0,1,1.34-2.49h0a2,2,0,0,1,2.49,1.35h0a2,2,0,0,1-1.35,2.48h0a1.88,1.88,0,0,1-.57.09h0A2,2,0,0,1,119.07,55.78ZM24.67,43.51a2,2,0,0,1-.61-2.77h0a2,2,0,0,1,2.77-.6h0a2,2,0,0,1,.6,2.76h0a2,2,0,0,1-1.69.92h0A2,2,0,0,1,24.67,43.51ZM113,42.64a2,2,0,0,1,.59-2.77h0a2,2,0,0,1,2.77.59h0a2,2,0,0,1-.59,2.77h0a2,2,0,0,1-1.09.32h0A2,2,0,0,1,113,42.64ZM34.07,31.74a2,2,0,0,1,.19-2.82h0a2,2,0,0,1,2.82.2h0a2,2,0,0,1-.19,2.82h0a2,2,0,0,1-1.31.49h0A2,2,0,0,1,34.07,31.74Zm69.41,0a2,2,0,0,1-.21-2.82h0a2,2,0,0,1,2.82-.21h0a2,2,0,0,1,.21,2.82h0a2,2,0,0,1-1.52.69h0A2,2,0,0,1,103.48,31.74ZM46.39,23.09a2,2,0,0,1,1-2.65h0a2,2,0,0,1,2.66,1h0a2,2,0,0,1-1,2.65h0a1.8,1.8,0,0,1-.84.18h0A2,2,0,0,1,46.39,23.09Zm44.89.85a2,2,0,0,1-1-2.64h0a2,2,0,0,1,2.65-1h0a2,2,0,0,1,1,2.65h0a2,2,0,0,1-1.82,1.17h0A1.89,1.89,0,0,1,91.28,23.94ZM60.64,18.27A2,2,0,0,1,62.33,16h0a2,2,0,0,1,2.27,1.7h0A2,2,0,0,1,62.91,20h0a1.46,1.46,0,0,1-.29,0h0A2,2,0,0,1,60.64,18.27Zm16.74,1.65a2,2,0,0,1-1.7-2.26h0A2,2,0,0,1,77.94,16h0a2,2,0,0,1,1.7,2.26h0a2,2,0,0,1-2,1.72h0Z"></path><g class="cls-4"><path class="cls-5 CLNWUNEJ_4" d="M88.16,74.81,55.16,32,19.3,87.64"></path></g><path class="cls-5 CLNWUNEJ_5" d="M112.85,66.4,87,37.51,73.1,54.76"></path><path class="cls-2 CLNWUNEJ_6" d="M117.25,63.66c-1.13,4.06-7.34,17-52.09,14.24-18.67-2.68-30.3,9-32,27.22,0,0-6.5-7.19-8.73-11.87,0,0,2.18-24.93,40.77-21.48,32.92,2.94,51.1-6.51,47-11.36.45-.34,3,1.5,3,1.5S117.29,62.2,117.25,63.66Z"></path><path class="cls-6 CLNWUNEJ_7" d="M116.53,65c-1.12,4.06-4,19.67-51.37,14.34-18.67-2.68-30.3,10-32,28.3,0,0-6.5-7.19-8.73-11.87,0,0,2.18-24.93,40.77-21.48,46.06,5.09,50.22-11,50.22-11S116.93,63.7,116.53,65Z"></path><path class="cls-6 CLNWUNEJ_8" d="M124,71a52.87,52.87,0,0,1-52.87,52.87,63.38,63.38,0,0,1-15.43-2.52s-8.42-32.49,27-32.44S124,71,124,71Z"></path><path class="cls-3 CLNWUNEJ_9" d="M55.14,46.71A1,1 0,1,1 57.14,46.71A1,1 0,1,1 55.14,46.71"></path><path class="cls-3 CLNWUNEJ_10" d="M57.29,43.33A1,1 0,1,1 59.29,43.33A1,1 0,1,1 57.29,43.33"></path><path class="cls-3 CLNWUNEJ_11" d="M51.77,44.56A1,1 0,1,1 53.77,44.56A1,1 0,1,1 51.77,44.56"></path><path class="cls-3 CLNWUNEJ_12" d="M53.91,41.19A1,1 0,1,1 55.91,41.19A1,1 0,1,1 53.91,41.19"></path><path class="cls-3 CLNWUNEJ_13" d="M50.86,53.46A1,1 0,1,1 52.86,53.46A1,1 0,1,1 50.86,53.46"></path><path class="cls-3 CLNWUNEJ_14" d="M53,50.08A1,1 0,1,1 55,50.08A1,1 0,1,1 53,50.08"></path><path class="cls-3 CLNWUNEJ_15" d="M47.48,51.32A1,1 0,1,1 49.48,51.32A1,1 0,1,1 47.48,51.32"></path><path class="cls-3 CLNWUNEJ_16" d="M49.62,47.94A1,1 0,1,1 51.62,47.94A1,1 0,1,1 49.62,47.94"></path><path class="cls-3 CLNWUNEJ_17" d="M48.72,56.84A1,1 0,1,1 50.72,56.84A1,1 0,1,1 48.72,56.84"></path><path class="cls-3 CLNWUNEJ_18" d="M45.34,54.7A1,1 0,1,1 47.34,54.7A1,1 0,1,1 45.34,54.7"></path><path class="cls-3 CLNWUNEJ_19" d="M46.58,60.24A1,1 0,1,1 48.58,60.24A1,1 0,1,1 46.58,60.24"></path><path class="cls-3 CLNWUNEJ_20" d="M43.2,58.1A1,1 0,1,1 45.2,58.1A1,1 0,1,1 43.2,58.1"></path><path class="cls-3 CLNWUNEJ_21" d="M42.29,67A1,1 0,1,1 44.29,67A1,1 0,1,1 42.29,67"></path><path class="cls-3 CLNWUNEJ_22" d="M44.43,63.62A1,1 0,1,1 46.43,63.62A1,1 0,1,1 44.43,63.62"></path><path class="cls-3 CLNWUNEJ_23" d="M38.91,64.86A1,1 0,1,1 40.91,64.86A1,1 0,1,1 38.91,64.86"></path><path class="cls-3 CLNWUNEJ_24" d="M41.06,61.48A1,1 0,1,1 43.06,61.48A1,1 0,1,1 41.06,61.48"></path><path class="cls-3 CLNWUNEJ_25" d="M40.15,70.38A1,1 0,1,1 42.15,70.38A1,1 0,1,1 40.15,70.38"></path><path class="cls-3 CLNWUNEJ_26" d="M36.77,68.23A1,1 0,1,1 38.77,68.23A1,1 0,1,1 36.77,68.23"></path><path class="cls-3 CLNWUNEJ_27" d="M34.63,71.61A1,1 0,1,1 36.63,71.61A1,1 0,1,1 34.63,71.61"></path><path class="cls-3 CLNWUNEJ_28" d="M78.57,54.76A1,1 0,1,1 80.57,54.76A1,1 0,1,1 78.57,54.76"></path><path class="cls-3 CLNWUNEJ_29" d="M78.57,54.76A1,1 0,1,1 80.57,54.76A1,1 0,1,1 78.57,54.76"></path><path class="cls-3 CLNWUNEJ_30" d="M81.14,51.7A1,1 0,1,1 83.14,51.7A1,1 0,1,1 81.14,51.7"></path><path class="cls-3 CLNWUNEJ_31" d="M83.71,48.64A1,1 0,1,1 85.71,48.64A1,1 0,1,1 83.71,48.64"></path><path class="cls-3 CLNWUNEJ_32" d="M86.28,45.57A1,1 0,1,1 88.28,45.57A1,1 0,1,1 86.28,45.57"></path><path class="cls-3 CLNWUNEJ_33" d="M81.63,57.34A1,1 0,1,1 83.63,57.34A1,1 0,1,1 81.63,57.34"></path><path class="cls-3 CLNWUNEJ_34" d="M84.21,54.27A1,1 0,1,1 86.21,54.27A1,1 0,1,1 84.21,54.27"></path><path class="cls-3 CLNWUNEJ_35" d="M86.78,51.21A1,1 0,1,1 88.78,51.21A1,1 0,1,1 86.78,51.21"></path><path class="cls-3 CLNWUNEJ_36" d="M89.35,48.15A1,1 0,1,1 91.35,48.15A1,1 0,1,1 89.35,48.15"></path><path class="cls-7 CLNWUNEJ_37" d="M86,93.12c30.49,0,36.84-16,38-20.5,0-.56,0-1.11,0-1.67,0,0-5.87,18-41.3,17.91s-27,32.44-27,32.44c.91.25,1.78.47,2.62.67C57.37,113.52,57.88,93.08,86,93.12Z"></path></g></g><style data-made-with="vivus-instant">.CLNWUNEJ_0{stroke-dasharray:333 335;stroke-dashoffset:334;}.start .CLNWUNEJ_0{animation:CLNWUNEJ_draw 800ms linear 0ms forwards;}.CLNWUNEJ_1{stroke-dasharray:442 444;stroke-dashoffset:443;}.start .CLNWUNEJ_1{animation:CLNWUNEJ_draw 800ms linear 10ms forwards;}.CLNWUNEJ_2{stroke-dasharray:442 444;stroke-dashoffset:443;}.start .CLNWUNEJ_2{animation:CLNWUNEJ_draw 800ms linear 21ms forwards;}.CLNWUNEJ_3{stroke-dasharray:139 141;stroke-dashoffset:140;}.start .CLNWUNEJ_3{animation:CLNWUNEJ_draw 800ms linear 32ms forwards;}.CLNWUNEJ_4{stroke-dasharray:121 123;stroke-dashoffset:122;}.start .CLNWUNEJ_4{animation:CLNWUNEJ_draw 800ms linear 43ms forwards;}.CLNWUNEJ_5{stroke-dasharray:61 63;stroke-dashoffset:62;}.start .CLNWUNEJ_5{animation:CLNWUNEJ_draw 800ms linear 54ms forwards;}.CLNWUNEJ_6{stroke-dasharray:230 232;stroke-dashoffset:231;}.start .CLNWUNEJ_6{animation:CLNWUNEJ_draw 800ms linear 64ms forwards;}.CLNWUNEJ_7{stroke-dasharray:229 231;stroke-dashoffset:230;}.start .CLNWUNEJ_7{animation:CLNWUNEJ_draw 800ms linear 75ms forwards;}.CLNWUNEJ_8{stroke-dasharray:197 199;stroke-dashoffset:198;}.start .CLNWUNEJ_8{animation:CLNWUNEJ_draw 800ms linear 86ms forwards;}.CLNWUNEJ_9{stroke-dasharray:7 9;stroke-dashoffset:8;}.start .CLNWUNEJ_9{animation:CLNWUNEJ_draw 800ms linear 97ms forwards;}.CLNWUNEJ_10{stroke-dasharray:7 9;stroke-dashoffset:8;}.start .CLNWUNEJ_10{animation:CLNWUNEJ_draw 800ms linear 108ms forwards;}.CLNWUNEJ_11{stroke-dasharray:7 9;stroke-dashoffset:8;}.start .CLNWUNEJ_11{animation:CLNWUNEJ_draw 800ms linear 118ms forwards;}.CLNWUNEJ_12{stroke-dasharray:7 9;stroke-dashoffset:8;}.start .CLNWUNEJ_12{animation:CLNWUNEJ_draw 800ms linear 129ms forwards;}.CLNWUNEJ_13{stroke-dasharray:7 9;stroke-dashoffset:8;}.start .CLNWUNEJ_13{animation:CLNWUNEJ_draw 800ms linear 140ms forwards;}.CLNWUNEJ_14{stroke-dasharray:7 9;stroke-dashoffset:8;}.start .CLNWUNEJ_14{animation:CLNWUNEJ_draw 800ms linear 151ms forwards;}.CLNWUNEJ_15{stroke-dasharray:7 9;stroke-dashoffset:8;}.start .CLNWUNEJ_15{animation:CLNWUNEJ_draw 800ms linear 162ms forwards;}.CLNWUNEJ_16{stroke-dasharray:7 9;stroke-dashoffset:8;}.start .CLNWUNEJ_16{animation:CLNWUNEJ_draw 800ms linear 172ms forwards;}.CLNWUNEJ_17{stroke-dasharray:7 9;stroke-dashoffset:8;}.start .CLNWUNEJ_17{animation:CLNWUNEJ_draw 800ms linear 183ms forwards;}.CLNWUNEJ_18{stroke-dasharray:7 9;stroke-dashoffset:8;}.start .CLNWUNEJ_18{animation:CLNWUNEJ_draw 800ms linear 194ms forwards;}.CLNWUNEJ_19{stroke-dasharray:7 9;stroke-dashoffset:8;}.start .CLNWUNEJ_19{animation:CLNWUNEJ_draw 800ms linear 205ms forwards;}.CLNWUNEJ_20{stroke-dasharray:7 9;stroke-dashoffset:8;}.start .CLNWUNEJ_20{animation:CLNWUNEJ_draw 800ms linear 216ms forwards;}.CLNWUNEJ_21{stroke-dasharray:7 9;stroke-dashoffset:8;}.start .CLNWUNEJ_21{animation:CLNWUNEJ_draw 800ms linear 227ms forwards;}.CLNWUNEJ_22{stroke-dasharray:7 9;stroke-dashoffset:8;}.start .CLNWUNEJ_22{animation:CLNWUNEJ_draw 800ms linear 237ms forwards;}.CLNWUNEJ_23{stroke-dasharray:7 9;stroke-dashoffset:8;}.start .CLNWUNEJ_23{animation:CLNWUNEJ_draw 800ms linear 248ms forwards;}.CLNWUNEJ_24{stroke-dasharray:7 9;stroke-dashoffset:8;}.start .CLNWUNEJ_24{animation:CLNWUNEJ_draw 800ms linear 259ms forwards;}.CLNWUNEJ_25{stroke-dasharray:7 9;stroke-dashoffset:8;}.start .CLNWUNEJ_25{animation:CLNWUNEJ_draw 800ms linear 270ms forwards;}.CLNWUNEJ_26{stroke-dasharray:7 9;stroke-dashoffset:8;}.start .CLNWUNEJ_26{animation:CLNWUNEJ_draw 800ms linear 281ms forwards;}.CLNWUNEJ_27{stroke-dasharray:7 9;stroke-dashoffset:8;}.start .CLNWUNEJ_27{animation:CLNWUNEJ_draw 800ms linear 291ms forwards;}.CLNWUNEJ_28{stroke-dasharray:7 9;stroke-dashoffset:8;}.start .CLNWUNEJ_28{animation:CLNWUNEJ_draw 800ms linear 302ms forwards;}.CLNWUNEJ_29{stroke-dasharray:7 9;stroke-dashoffset:8;}.start .CLNWUNEJ_29{animation:CLNWUNEJ_draw 800ms linear 313ms forwards;}.CLNWUNEJ_30{stroke-dasharray:7 9;stroke-dashoffset:8;}.start .CLNWUNEJ_30{animation:CLNWUNEJ_draw 800ms linear 324ms forwards;}.CLNWUNEJ_31{stroke-dasharray:7 9;stroke-dashoffset:8;}.start .CLNWUNEJ_31{animation:CLNWUNEJ_draw 800ms linear 335ms forwards;}.CLNWUNEJ_32{stroke-dasharray:7 9;stroke-dashoffset:8;}.start .CLNWUNEJ_32{animation:CLNWUNEJ_draw 800ms linear 345ms forwards;}.CLNWUNEJ_33{stroke-dasharray:7 9;stroke-dashoffset:8;}.start .CLNWUNEJ_33{animation:CLNWUNEJ_draw 800ms linear 356ms forwards;}.CLNWUNEJ_34{stroke-dasharray:7 9;stroke-dashoffset:8;}.start .CLNWUNEJ_34{animation:CLNWUNEJ_draw 800ms linear 367ms forwards;}.CLNWUNEJ_35{stroke-dasharray:7 9;stroke-dashoffset:8;}.start .CLNWUNEJ_35{animation:CLNWUNEJ_draw 800ms linear 378ms forwards;}.CLNWUNEJ_36{stroke-dasharray:7 9;stroke-dashoffset:8;}.start .CLNWUNEJ_36{animation:CLNWUNEJ_draw 800ms linear 389ms forwards;}.CLNWUNEJ_37{stroke-dasharray:196 198;stroke-dashoffset:197;}.start .CLNWUNEJ_37{animation:CLNWUNEJ_draw 800ms linear 400ms forwards;}@keyframes CLNWUNEJ_draw{100%{stroke-dashoffset:0;}}@keyframes CLNWUNEJ_fade{0%{stroke-opacity:1;}92.5925925925926%{stroke-opacity:1;}100%{stroke-opacity:0;}}</style></svg>