
<svg width="25px" height="25px" viewBox="0 0 25 25" version="1.1" xmlns="http://www.w3.org/2000/svg" xmlns:xlink="http://www.w3.org/1999/xlink">
    <!-- Generator: Sketch 50.2 (55047) - http://www.bohemiancoding.com/sketch -->
    <desc>Created with Sketch.</desc>
    <defs></defs>
    <g id="Welcome" stroke="none" stroke-width="1" fill="none" fill-rule="evenodd">
        <g id="ContactUs" transform="translate(-864.000000, -1686.000000)" fill="#0077B5" fill-rule="nonzero">
            <g id="linkedin" transform="translate(864.437500, 1686.205078)">
                <path d="M22.2857143,0 L1.70892857,0 C0.766071429,0 0,0.776785714 0,1.73035714 L0,22.2696429 C0,23.2232143 0.766071429,24 1.70892857,24 L22.2857143,24 C23.2285714,24 24,23.2232143 24,22.2696429 L24,1.73035714 C24,0.776785714 23.2285714,0 22.2857143,0 Z M7.25357143,20.5714286 L3.69642857,20.5714286 L3.69642857,9.11785714 L7.25892857,9.11785714 L7.25892857,20.5714286 L7.25357143,20.5714286 Z M5.475,7.55357143 C4.33392857,7.55357143 3.4125,6.62678571 3.4125,5.49107143 C3.4125,4.35535714 4.33392857,3.42857143 5.475,3.42857143 C6.61071429,3.42857143 7.5375,4.35535714 7.5375,5.49107143 C7.5375,6.63214286 6.61607143,7.55357143 5.475,7.55357143 Z M20.5875,20.5714286 L17.0303571,20.5714286 L17.0303571,15 C17.0303571,13.6714286 17.0035714,11.9625 15.1821429,11.9625 C13.3285714,11.9625 13.0446429,13.4089286 13.0446429,14.9035714 L13.0446429,20.5714286 L9.4875,20.5714286 L9.4875,9.11785714 L12.9,9.11785714 L12.9,10.6821429 L12.9482143,10.6821429 C13.425,9.78214286 14.5875,8.83392857 16.3178571,8.83392857 C19.9178571,8.83392857 20.5875,11.2071429 20.5875,14.2928571 L20.5875,20.5714286 Z" id="Shape"></path>
            </g>
        </g>
    </g>
</svg>