
<svg width="25px" height="25px" viewBox="0 0 25 25" version="1.1" xmlns="http://www.w3.org/2000/svg" xmlns:xlink="http://www.w3.org/1999/xlink">
    <!-- Generator: Sketch 50.2 (55047) - http://www.bohemiancoding.com/sketch -->
    <desc>Created with Sketch.</desc>
    <defs></defs>
    <g id="Welcome" stroke="none" stroke-width="1" fill="none" fill-rule="evenodd">
        <g id="OurStories.Post" transform="translate(-632.000000, -4434.000000)" fill="#D34836" fill-rule="nonzero">
            <g id="google-plus-square" transform="translate(632.898438, 4434.478516)">
                <path d="M21.4285714,0 L2.57142857,0 C1.15178571,0 0,1.15178571 0,2.57142857 L0,21.4285714 C0,22.8482143 1.15178571,24 2.57142857,24 L21.4285714,24 C22.8482143,24 24,22.8482143 24,21.4285714 L24,2.57142857 C24,1.15178571 22.8482143,0 21.4285714,0 Z M8.78571429,17.3571429 C5.82321429,17.3571429 3.42857143,14.9625 3.42857143,12 C3.42857143,9.0375 5.82321429,6.64285714 8.78571429,6.64285714 C10.2321429,6.64285714 11.4375,7.16785714 12.375,8.04642857 L10.9232143,9.44464286 C10.5267857,9.06428571 9.83571429,8.61964286 8.79107143,8.61964286 C6.96428571,8.61964286 5.475,10.1303571 5.475,12.0053571 C5.475,13.875 6.96428571,15.3910714 8.79107143,15.3910714 C10.9125,15.3910714 11.7053571,13.8642857 11.8339286,13.0821429 L8.78571429,13.0821429 L8.78571429,11.2392857 L13.8428571,11.2392857 C13.8964286,11.5071429 13.9285714,11.7803571 13.9285714,12.1285714 C13.9285714,15.1875 11.8767857,17.3571429 8.78571429,17.3571429 Z M20.5714286,12.975 L19.0178571,12.975 L19.0178571,14.5285714 L17.4535714,14.5285714 L17.4535714,12.975 L15.9,12.975 L15.9,11.4107143 L17.4535714,11.4107143 L17.4535714,9.85714286 L19.0178571,9.85714286 L19.0178571,11.4107143 L20.5714286,11.4107143 L20.5714286,12.975 Z" id="Shape"></path>
            </g>
        </g>
    </g>
</svg>