<?xml version="1.0" encoding="UTF-8"?><svg id="Layer_2" xmlns="http://www.w3.org/2000/svg" viewBox="0 0 30.6 30.6"><defs><style>.cls-1{fill:none;stroke:rgba(255,253,253,.2);stroke-width:1.42px;}.cls-2,.cls-3{fill:#fffdfd;}.cls-3{isolation:isolate;opacity:.2;}.cls-4{fill:#a82a3a;}</style></defs><g id="Layer_1-2"><circle class="cls-4" cx="15.3" cy="15.3" r="15.3"/><circle class="cls-1" cx="15.3" cy="15.3" r="10.9"/><path class="cls-3" d="M15.3,13.3s-2.3-2-5.5-2.5v1.6s3,1.1,5.5,3.1c2.4-2,5.5-3.1,5.5-3.1v-1.6c-3.2.5-5.5,2.5-5.5,2.5Z"/><path class="cls-2" d="M16.8,18.6l-1.5,1.6s-3-3.6-6.6-4.2v-2.9c.1,0,5.5,1.3,8.1,5.5Z"/><path class="cls-3" d="M13.8,18.6l1.5,1.6s3-3.6,6.6-4.2v-2.9c-.1,0-5.5,1.3-8.1,5.5Z"/></g></svg>