<svg xmlns="http://www.w3.org/2000/svg" viewBox="0 0 140.6 140.6" id="team-care" class="" style=""><defs><style>#team-care .cls-1{fill:#fff;}#team-care .cls-2{fill:#a5bac9;}#team-care .cls-3,#team-care .cls-5,#team-care .cls-7,#team-care .cls-8,#team-care .cls-9{fill:none;}#team-care .cls-3{stroke:#fff;stroke-width:5.32px;}#team-care .cls-3,#team-care .cls-5,#team-care .cls-8,#team-care .cls-9{stroke-miterlimit:10;}#team-care .cls-4{fill:#d1dbe3;}#team-care .cls-5,#team-care .cls-7,#team-care .cls-8{stroke:#397591;stroke-linecap:round;}#team-care .cls-5,#team-care .cls-7{stroke-width:4px;}#team-care .cls-6{fill:#397591;}#team-care .cls-7{stroke-linejoin:round;}#team-care .cls-8{stroke-width:3.73px;}#team-care .cls-9{stroke:#d1dbe3;stroke-width:3px;}</style></defs><title>Team_Care</title><g id="Layer_2_care" data-name="Layer 2"><g id="_2_care" data-name="2"><path class="cls-1 IgUPRDRo_0" d="M0,70.3A70.3,70.3 0,1,1 140.6,70.3A70.3,70.3 0,1,1 0,70.3"></path><path class="cls-2 IgUPRDRo_1" d="M62.55,124.63a2,2,0,0,1-1.7-2.26h0a2,2,0,0,1,2.26-1.7h0a2,2,0,0,1,1.7,2.26h0a2,2,0,0,1-2,1.72h0Zm13.34-1.72a2,2,0,0,1,1.7-2.26h0a2,2,0,0,1,2.26,1.7h0a2,2,0,0,1-1.69,2.26h0l-.29,0h0A2,2,0,0,1,75.89,122.91Zm-28.32-2.66h0a2,2,0,0,1-1-2.65h0a2,2,0,0,1,2.65-1h0a2,2,0,0,1,1,2.65h0a2,2,0,0,1-1.82,1.17h0A2,2,0,0,1,47.57,120.25Zm42.91-1a2,2,0,0,1,1-2.65h0a2,2,0,0,1,2.65,1h0a2,2,0,0,1-1,2.65h0a2.12,2.12,0,0,1-.84.18h0A2,2,0,0,1,90.48,119.22Zm-56-7.4a2,2,0,0,1-.21-2.82h0a2,2,0,0,1,2.82-.2h0a2,2,0,0,1,.21,2.82h0a2,2,0,0,1-1.52.69h0A2,2,0,0,1,34.43,111.82ZM24.18,100h0a2,2,0,0,1,.6-2.77h0a2,2,0,0,1,2.76.59h0a2,2,0,0,1-.59,2.77h0a2.06,2.06,0,0,1-1.09.32h0A2,2,0,0,1,24.18,100ZM17.67,85.86h0A2,2,0,0,1,19,83.37h0a2,2,0,0,1,2.48,1.35h0a2,2,0,0,1-1.35,2.49h0a2.24,2.24,0,0,1-.57.08h0A2,2,0,0,1,17.67,85.86Zm102.81,1.25a2,2,0,0,1-1.35-2.48h0a2,2,0,0,1,2.49-1.36h0A2,2,0,0,1,123,85.75h0A2,2,0,0,1,121,87.19h0A2.23,2.23,0,0,1,120.48,87.11Zm-105-16.7a2,2,0,0,1,2-2h0a2,2,0,0,1,2,2h0a2,2,0,0,1-2,2h0A2,2,0,0,1,15.43,70.41Zm105.74-.11v-.08h0V70.1h0a2,2,0,0,1,2-2h0a2,2,0,0,1,2,2h0v.11h0v.11h0a2,2,0,0,1-2,2h0A2,2,0,0,1,121.17,70.3ZM19,57.43A2,2,0,0,1,17.6,55h0a2,2,0,0,1,2.48-1.36h0a2,2,0,0,1,1.37,2.48h0a2,2,0,0,1-1.92,1.44h0A1.85,1.85,0,0,1,19,57.43Zm100.11-1.65a2,2,0,0,1,1.34-2.49h0a2,2,0,0,1,2.49,1.35h0a2,2,0,0,1-1.35,2.48h0a1.88,1.88,0,0,1-.57.09h0A2,2,0,0,1,119.07,55.78ZM24.67,43.51a2,2,0,0,1-.61-2.77h0a2,2,0,0,1,2.77-.6h0a2,2,0,0,1,.6,2.76h0a2,2,0,0,1-1.69.92h0A2,2,0,0,1,24.67,43.51ZM113,42.64a2,2,0,0,1,.59-2.77h0a2,2,0,0,1,2.77.59h0a2,2,0,0,1-.59,2.77h0a2,2,0,0,1-1.09.32h0A2,2,0,0,1,113,42.64ZM34.07,31.74a2,2,0,0,1,.19-2.82h0a2,2,0,0,1,2.82.2h0a2,2,0,0,1-.19,2.82h0a2,2,0,0,1-1.31.49h0A2,2,0,0,1,34.07,31.74Zm69.41,0a2,2,0,0,1-.21-2.82h0a2,2,0,0,1,2.82-.21h0a2,2,0,0,1,.21,2.82h0a2,2,0,0,1-1.52.69h0A2,2,0,0,1,103.48,31.74ZM46.39,23.09a2,2,0,0,1,1-2.65h0a2,2,0,0,1,2.66,1h0a2,2,0,0,1-1,2.65h0a1.8,1.8,0,0,1-.84.18h0A2,2,0,0,1,46.39,23.09Zm44.89.85a2,2,0,0,1-1-2.64h0a2,2,0,0,1,2.65-1h0a2,2,0,0,1,1,2.65h0a2,2,0,0,1-1.82,1.17h0A1.89,1.89,0,0,1,91.28,23.94ZM60.64,18.27A2,2,0,0,1,62.33,16h0a2,2,0,0,1,2.27,1.7h0A2,2,0,0,1,62.91,20h0a1.46,1.46,0,0,1-.29,0h0A2,2,0,0,1,60.64,18.27Zm16.74,1.65a2,2,0,0,1-1.7-2.26h0A2,2,0,0,1,77.94,16h0a2,2,0,0,1,1.7,2.26h0a2,2,0,0,1-2,1.72h0Z"></path><path class="cls-3 IgUPRDRo_2" d="M117.4,102.23H104.88l-4.36-1.48s-24.4,5.39-35.49,5.39-22.93-5.35-25.25-7.73"></path><path class="cls-4 IgUPRDRo_3" d="M99,99.89H93.58s4.09-10.53,0-14.15S99,85.63,99,85.63Z"></path><path class="cls-5 IgUPRDRo_4" d="M64.31,96.22s-16.66-4.51-20.65-4.65-6.19,2.66-3.88,5S54,104.34,65,104.34s35.49-5.4,35.49-5.4"></path><path class="cls-6 IgUPRDRo_5" d="M60.93,50.5a3,3,0,0,1-2,4c-1.6.47-2.79-.4-3.38-2.42s-.23-3.91,1.36-4.39S60.33,48.48,60.93,50.5Z"></path><path class="cls-6 IgUPRDRo_6" d="M61,70.77,53,72s2.64-10.22.58-11.55c0,0,.27-3.37,4.45-4.84a4.83,4.83,0,0,1,3,.61c2,0,3.37-.64,3.54,2.39C64.48,63.45,61,70.77,61,70.77Z"></path><path class="cls-6 IgUPRDRo_7" d="M64.64,59.28c4.75-3.73,7-14,4-17.05-.71-.48-1-.16-1.08.12-.32.44,2.86,11.34-7.77,13.47S62.08,59.69,64.64,59.28Z"></path><path class="cls-6 IgUPRDRo_8" d="M57.32,55.55S45.15,60.79,44.07,69.83c-.15,1.18.77,1.41,1.21.79.42-.23,4.12-11.09,12.36-9C67.3,66.57,57.32,55.55,57.32,55.55Z"></path><path class="cls-7 IgUPRDRo_9" d="M78.29,91.33,64.67,96.22s-6.55-3.78.36-8.84c0,0,8.42-4.77,17.67-4.77s17.46,4.87,17.46,4.87"></path><path class="cls-8 IgUPRDRo_10" d="M117.4,100.42H104.88a4,4,0,0,1-4-4V84.61a4,4,0,0,1,4-4H112"></path><path class="cls-6 IgUPRDRo_11" d="M44,90.11l-3.28.55L53,72s5-7,5-.34S44,90.11,44,90.11Z"></path><path class="cls-6 IgUPRDRo_12" d="M62.53,92.23s-2.93,2.52-4.18.94c0,0,3-9.16,2.83-11.44-.65-4.75-7-7.45-7.65-10.41,0,0,5-7.47,8-1.58,1,1.91,3.7,4.74,4.08,9.82A33.66,33.66,0,0,1,62.53,92.23Z"></path><path class="cls-6 IgUPRDRo_13" width="3" height="3.66" d="M56.94 53.11 L59.94 53.11 L59.94 56.769999999999996 L56.94 56.769999999999996 Z"></path><path class="cls-6 IgUPRDRo_14" d="M81.69,52.33c-.71,1.28-.62,2.31.39,2.86a2.14,2.14,0,0,0,3-1,2.38,2.38,0,0,0-.61-3.29C83.44,50.34,82.39,51.06,81.69,52.33Z"></path><path class="cls-6 IgUPRDRo_15" d="M81.49,66.58l6.43,1.53s-2.55-7.68-1.1-8.62.35-2.4-2.61-3.44a5.88,5.88,0,0,0-2.68.44c-1.41,0-1.69.46-1.81,2.61S81.49,66.58,81.49,66.58Z"></path><path class="cls-6 IgUPRDRo_16" d="M79.72,59.1s-7.47-7-5.15-10.82c.63-.53.88-.23,1,.08a8.39,8.39,0,0,0,6.86,7.89C90,57.75,79.72,59.1,79.72,59.1Z"></path><path class="cls-6 IgUPRDRo_17" d="M84.21,56.05A11.22,11.22,0,0,1,92.5,66.16c-.17.8-.56.72-.85.56s-2.25-7.09-6-6.09C78.83,64.1,84.21,56.05,84.21,56.05Z"></path><path class="cls-6 IgUPRDRo_18" d="M88.18,81.61l1.27-.12s.58-8.14-1.53-13.38c-1.34-2.16-4.1-4.67-4.1,0C84.62,71.57,88.18,81.61,88.18,81.61Z"></path><path class="cls-6 IgUPRDRo_19" d="M81.67,82s1.35,3.19,1.55-.25-.54-5.59-.85-7.59a13.12,13.12,0,0,0,2.12-5.41c.75-3.75-.87-6.58-3-2.41a28,28,0,0,0-2.35,7.24C79,75.41,81.67,82,81.67,82Z"></path><path class="cls-6 IgUPRDRo_20" width="2.12" height="2.59" transform="translate(157.07 123.64) rotate(-170.98)" d="M82.35 54.33 L84.47 54.33 L84.47 56.92 L82.35 56.92 Z"></path><path class="cls-2 IgUPRDRo_21" d="M30.02,49.87A1,1 0,1,1 32.019999999999996,49.87A1,1 0,1,1 30.02,49.87"></path><path class="cls-2 IgUPRDRo_22" d="M34.02,49.87A1,1 0,1,1 36.02,49.87A1,1 0,1,1 34.02,49.87"></path><path class="cls-2 IgUPRDRo_23" d="M34.02,45.87A1,1 0,1,1 36.02,45.87A1,1 0,1,1 34.02,45.87"></path><path class="cls-2 IgUPRDRo_24" d="M38.02,49.87A1,1 0,1,1 40.02,49.87A1,1 0,1,1 38.02,49.87"></path><path class="cls-2 IgUPRDRo_25" d="M42.02,49.87A1,1 0,1,1 44.02,49.87A1,1 0,1,1 42.02,49.87"></path><path class="cls-2 IgUPRDRo_26" d="M38.02,45.87A1,1 0,1,1 40.02,45.87A1,1 0,1,1 38.02,45.87"></path><path class="cls-2 IgUPRDRo_27" d="M42.02,45.87A1,1 0,1,1 44.02,45.87A1,1 0,1,1 42.02,45.87"></path><path class="cls-2 IgUPRDRo_28" d="M38.02,41.74A1,1 0,1,1 40.02,41.74A1,1 0,1,1 38.02,41.74"></path><path class="cls-2 IgUPRDRo_29" d="M42.02,41.74A1,1 0,1,1 44.02,41.74A1,1 0,1,1 42.02,41.74"></path><path class="cls-2 IgUPRDRo_30" d="M42.02,37.74A1,1 0,1,1 44.02,37.74A1,1 0,1,1 42.02,37.74"></path><path class="cls-2 IgUPRDRo_31" d="M46.02,49.87A1,1 0,1,1 48.02,49.87A1,1 0,1,1 46.02,49.87"></path><path class="cls-2 IgUPRDRo_32" d="M50.02,49.87A1,1 0,1,1 52.02,49.87A1,1 0,1,1 50.02,49.87"></path><path class="cls-2 IgUPRDRo_33" d="M46.02,45.87A1,1 0,1,1 48.02,45.87A1,1 0,1,1 46.02,45.87"></path><path class="cls-2 IgUPRDRo_34" d="M50.02,45.87A1,1 0,1,1 52.02,45.87A1,1 0,1,1 50.02,45.87"></path><path class="cls-2 IgUPRDRo_35" d="M46.02,41.74A1,1 0,1,1 48.02,41.74A1,1 0,1,1 46.02,41.74"></path><path class="cls-2 IgUPRDRo_36" d="M46.02,37.74A1,1 0,1,1 48.02,37.74A1,1 0,1,1 46.02,37.74"></path><path class="cls-2 IgUPRDRo_37" d="M50.02,41.74A1,1 0,1,1 52.02,41.74A1,1 0,1,1 50.02,41.74"></path><path class="cls-2 IgUPRDRo_38" d="M50.02,37.74A1,1 0,1,1 52.02,37.74A1,1 0,1,1 50.02,37.74"></path><path class="cls-2 IgUPRDRo_39" d="M46.02,33.74A1,1 0,1,1 48.02,33.74A1,1 0,1,1 46.02,33.74"></path><path class="cls-2 IgUPRDRo_40" d="M50.02,33.74A1,1 0,1,1 52.02,33.74A1,1 0,1,1 50.02,33.74"></path><path class="cls-2 IgUPRDRo_41" d="M54.02,41.74A1,1 0,1,1 56.02,41.74A1,1 0,1,1 54.02,41.74"></path><path class="cls-2 IgUPRDRo_42" d="M54.02,37.74A1,1 0,1,1 56.02,37.74A1,1 0,1,1 54.02,37.74"></path><path class="cls-2 IgUPRDRo_43" d="M58.02,41.74A1,1 0,1,1 60.02,41.74A1,1 0,1,1 58.02,41.74"></path><path class="cls-2 IgUPRDRo_44" d="M58.02,37.74A1,1 0,1,1 60.02,37.74A1,1 0,1,1 58.02,37.74"></path><path class="cls-2 IgUPRDRo_45" d="M54.02,33.74A1,1 0,1,1 56.02,33.74A1,1 0,1,1 54.02,33.74"></path><path class="cls-2 IgUPRDRo_46" d="M58.02,33.74A1,1 0,1,1 60.02,33.74A1,1 0,1,1 58.02,33.74"></path><path class="cls-2 IgUPRDRo_47" d="M54.02,29.74A1,1 0,1,1 56.02,29.74A1,1 0,1,1 54.02,29.74"></path><path class="cls-2 IgUPRDRo_48" d="M58.02,29.74A1,1 0,1,1 60.02,29.74A1,1 0,1,1 58.02,29.74"></path><path class="cls-2 IgUPRDRo_49" d="M62.02,41.74A1,1 0,1,1 64.02000000000001,41.74A1,1 0,1,1 62.02,41.74"></path><path class="cls-2 IgUPRDRo_50" d="M62.02,37.74A1,1 0,1,1 64.02000000000001,37.74A1,1 0,1,1 62.02,37.74"></path><path class="cls-2 IgUPRDRo_51" d="M66.02,37.74A1,1 0,1,1 68.02,37.74A1,1 0,1,1 66.02,37.74"></path><path class="cls-2 IgUPRDRo_52" d="M62.02,33.74A1,1 0,1,1 64.02000000000001,33.74A1,1 0,1,1 62.02,33.74"></path><path class="cls-2 IgUPRDRo_53" d="M66.02,33.74A1,1 0,1,1 68.02,33.74A1,1 0,1,1 66.02,33.74"></path><path class="cls-2 IgUPRDRo_54" d="M62.02,29.74A1,1 0,1,1 64.02000000000001,29.74A1,1 0,1,1 62.02,29.74"></path><path class="cls-2 IgUPRDRo_55" d="M66.02,29.74A1,1 0,1,1 68.02,29.74A1,1 0,1,1 66.02,29.74"></path><path class="cls-2 IgUPRDRo_56" d="M70.02,41.74A1,1 0,1,1 72.02,41.74A1,1 0,1,1 70.02,41.74"></path><path class="cls-2 IgUPRDRo_57" d="M70.02,37.74A1,1 0,1,1 72.02,37.74A1,1 0,1,1 70.02,37.74"></path><path class="cls-2 IgUPRDRo_58" d="M74.02,41.74A1,1 0,1,1 76.02,41.74A1,1 0,1,1 74.02,41.74"></path><path class="cls-2 IgUPRDRo_59" d="M74.02,37.74A1,1 0,1,1 76.02,37.74A1,1 0,1,1 74.02,37.74"></path><path class="cls-2 IgUPRDRo_60" d="M70.02,33.74A1,1 0,1,1 72.02,33.74A1,1 0,1,1 70.02,33.74"></path><path class="cls-2 IgUPRDRo_61" d="M74.02,33.74A1,1 0,1,1 76.02,33.74A1,1 0,1,1 74.02,33.74"></path><path class="cls-2 IgUPRDRo_62" d="M70.02,29.74A1,1 0,1,1 72.02,29.74A1,1 0,1,1 70.02,29.74"></path><path class="cls-2 IgUPRDRo_63" d="M74.02,29.74A1,1 0,1,1 76.02,29.74A1,1 0,1,1 74.02,29.74"></path><path class="cls-2 IgUPRDRo_64" d="M78.02,41.74A1,1 0,1,1 80.02,41.74A1,1 0,1,1 78.02,41.74"></path><path class="cls-2 IgUPRDRo_65" d="M78.02,37.74A1,1 0,1,1 80.02,37.74A1,1 0,1,1 78.02,37.74"></path><path class="cls-2 IgUPRDRo_66" d="M82.02,41.74A1,1 0,1,1 84.02,41.74A1,1 0,1,1 82.02,41.74"></path><path class="cls-2 IgUPRDRo_67" d="M82.02,37.74A1,1 0,1,1 84.02,37.74A1,1 0,1,1 82.02,37.74"></path><path class="cls-2 IgUPRDRo_68" d="M78.02,33.74A1,1 0,1,1 80.02,33.74A1,1 0,1,1 78.02,33.74"></path><path class="cls-2 IgUPRDRo_69" d="M82.02,33.74A1,1 0,1,1 84.02,33.74A1,1 0,1,1 82.02,33.74"></path><path class="cls-2 IgUPRDRo_70" d="M78.02,29.74A1,1 0,1,1 80.02,29.74A1,1 0,1,1 78.02,29.74"></path><path class="cls-2 IgUPRDRo_71" d="M82.02,29.74A1,1 0,1,1 84.02,29.74A1,1 0,1,1 82.02,29.74"></path><path class="cls-2 IgUPRDRo_72" d="M90.02,49.87A1,1 0,1,1 92.02,49.87A1,1 0,1,1 90.02,49.87"></path><path class="cls-2 IgUPRDRo_73" d="M90.02,45.87A1,1 0,1,1 92.02,45.87A1,1 0,1,1 90.02,45.87"></path><path class="cls-2 IgUPRDRo_74" d="M86.02,41.74A1,1 0,1,1 88.02,41.74A1,1 0,1,1 86.02,41.74"></path><path class="cls-2 IgUPRDRo_75" d="M86.02,37.74A1,1 0,1,1 88.02,37.74A1,1 0,1,1 86.02,37.74"></path><path class="cls-2 IgUPRDRo_76" d="M90.02,41.74A1,1 0,1,1 92.02,41.74A1,1 0,1,1 90.02,41.74"></path><path class="cls-2 IgUPRDRo_77" d="M90.02,37.74A1,1 0,1,1 92.02,37.74A1,1 0,1,1 90.02,37.74"></path><path class="cls-2 IgUPRDRo_78" d="M86.02,33.74A1,1 0,1,1 88.02,33.74A1,1 0,1,1 86.02,33.74"></path><path class="cls-2 IgUPRDRo_79" d="M90.02,33.74A1,1 0,1,1 92.02,33.74A1,1 0,1,1 90.02,33.74"></path><path class="cls-2 IgUPRDRo_80" d="M86.02,29.74A1,1 0,1,1 88.02,29.74A1,1 0,1,1 86.02,29.74"></path><path class="cls-2 IgUPRDRo_81" d="M94.02,49.87A1,1 0,1,1 96.02,49.87A1,1 0,1,1 94.02,49.87"></path><path class="cls-2 IgUPRDRo_82" d="M98.02,49.87A1,1 0,1,1 100.02,49.87A1,1 0,1,1 98.02,49.87"></path><path class="cls-2 IgUPRDRo_83" d="M94.02,45.87A1,1 0,1,1 96.02,45.87A1,1 0,1,1 94.02,45.87"></path><path class="cls-2 IgUPRDRo_84" d="M98.02,45.87A1,1 0,1,1 100.02,45.87A1,1 0,1,1 98.02,45.87"></path><path class="cls-2 IgUPRDRo_85" d="M94.02,41.74A1,1 0,1,1 96.02,41.74A1,1 0,1,1 94.02,41.74"></path><path class="cls-2 IgUPRDRo_86" d="M94.02,37.74A1,1 0,1,1 96.02,37.74A1,1 0,1,1 94.02,37.74"></path><path class="cls-2 IgUPRDRo_87" d="M98.02,41.74A1,1 0,1,1 100.02,41.74A1,1 0,1,1 98.02,41.74"></path><path class="cls-2 IgUPRDRo_88" d="M98.02,37.74A1,1 0,1,1 100.02,37.74A1,1 0,1,1 98.02,37.74"></path><path class="cls-2 IgUPRDRo_89" d="M94.02,33.74A1,1 0,1,1 96.02,33.74A1,1 0,1,1 94.02,33.74"></path><path class="cls-2 IgUPRDRo_90" d="M102.02,49.87A1,1 0,1,1 104.02,49.87A1,1 0,1,1 102.02,49.87"></path><path class="cls-2 IgUPRDRo_91" d="M102.02,45.87A1,1 0,1,1 104.02,45.87A1,1 0,1,1 102.02,45.87"></path><path class="cls-2 IgUPRDRo_92" d="M102.02,41.74A1,1 0,1,1 104.02,41.74A1,1 0,1,1 102.02,41.74"></path><path class="cls-2 IgUPRDRo_93" d="M106.02,49.87A1,1 0,1,1 108.02,49.87A1,1 0,1,1 106.02,49.87"></path><path class="cls-2 IgUPRDRo_94" d="M110.02,49.87A1,1 0,1,1 112.02,49.87A1,1 0,1,1 110.02,49.87"></path><path class="cls-2 IgUPRDRo_95" d="M106.02,45.87A1,1 0,1,1 108.02,45.87A1,1 0,1,1 106.02,45.87"></path><path class="cls-9 IgUPRDRo_96" d="M117.4,106.55H104.88l-4.36-1.48s-24.4,5.39-35.49,5.39-22.93-4.27-25.25-6.65"></path></g></g><style data-made-with="vivus-instant">.IgUPRDRo_0{stroke-dasharray:442 444;stroke-dashoffset:443;}.start .IgUPRDRo_0{animation:IgUPRDRo_draw 800ms linear 0ms forwards;}.IgUPRDRo_1{stroke-dasharray:253 255;stroke-dashoffset:254;}.start .IgUPRDRo_1{animation:IgUPRDRo_draw 800ms linear 4ms forwards;}.IgUPRDRo_2{stroke-dasharray:80 82;stroke-dashoffset:81;}.start .IgUPRDRo_2{animation:IgUPRDRo_draw 800ms linear 8ms forwards;}.IgUPRDRo_3{stroke-dasharray:44 46;stroke-dashoffset:45;}.start .IgUPRDRo_3{animation:IgUPRDRo_draw 800ms linear 12ms forwards;}.IgUPRDRo_4{stroke-dasharray:93 95;stroke-dashoffset:94;}.start .IgUPRDRo_4{animation:IgUPRDRo_draw 800ms linear 16ms forwards;}.IgUPRDRo_5{stroke-dasharray:21 23;stroke-dashoffset:22;}.start .IgUPRDRo_5{animation:IgUPRDRo_draw 800ms linear 20ms forwards;}.IgUPRDRo_6{stroke-dasharray:48 50;stroke-dashoffset:49;}.start .IgUPRDRo_6{animation:IgUPRDRo_draw 800ms linear 25ms forwards;}.IgUPRDRo_7{stroke-dasharray:52 54;stroke-dashoffset:53;}.start .IgUPRDRo_7{animation:IgUPRDRo_draw 800ms linear 29ms forwards;}.IgUPRDRo_8{stroke-dasharray:53 55;stroke-dashoffset:54;}.start .IgUPRDRo_8{animation:IgUPRDRo_draw 800ms linear 33ms forwards;}.IgUPRDRo_9{stroke-dasharray:63 65;stroke-dashoffset:64;}.start .IgUPRDRo_9{animation:IgUPRDRo_draw 800ms linear 37ms forwards;}.IgUPRDRo_10{stroke-dasharray:45 47;stroke-dashoffset:46;}.start .IgUPRDRo_10{animation:IgUPRDRo_draw 800ms linear 41ms forwards;}.IgUPRDRo_11{stroke-dasharray:58 60;stroke-dashoffset:59;}.start .IgUPRDRo_11{animation:IgUPRDRo_draw 800ms linear 45ms forwards;}.IgUPRDRo_12{stroke-dasharray:65 67;stroke-dashoffset:66;}.start .IgUPRDRo_12{animation:IgUPRDRo_draw 800ms linear 50ms forwards;}.IgUPRDRo_13{stroke-dasharray:14 16;stroke-dashoffset:15;}.start .IgUPRDRo_13{animation:IgUPRDRo_draw 800ms linear 54ms forwards;}.IgUPRDRo_14{stroke-dasharray:15 17;stroke-dashoffset:16;}.start .IgUPRDRo_14{animation:IgUPRDRo_draw 800ms linear 58ms forwards;}.IgUPRDRo_15{stroke-dasharray:36 38;stroke-dashoffset:37;}.start .IgUPRDRo_15{animation:IgUPRDRo_draw 800ms linear 62ms forwards;}.IgUPRDRo_16{stroke-dasharray:35 37;stroke-dashoffset:36;}.start .IgUPRDRo_16{animation:IgUPRDRo_draw 800ms linear 66ms forwards;}.IgUPRDRo_17{stroke-dasharray:34 36;stroke-dashoffset:35;}.start .IgUPRDRo_17{animation:IgUPRDRo_draw 800ms linear 70ms forwards;}.IgUPRDRo_18{stroke-dasharray:37 39;stroke-dashoffset:38;}.start .IgUPRDRo_18{animation:IgUPRDRo_draw 800ms linear 75ms forwards;}.IgUPRDRo_19{stroke-dasharray:42 44;stroke-dashoffset:43;}.start .IgUPRDRo_19{animation:IgUPRDRo_draw 800ms linear 79ms forwards;}.IgUPRDRo_20{stroke-dasharray:10 12;stroke-dashoffset:11;}.start .IgUPRDRo_20{animation:IgUPRDRo_draw 800ms linear 83ms forwards;}.IgUPRDRo_21{stroke-dasharray:7 9;stroke-dashoffset:8;}.start .IgUPRDRo_21{animation:IgUPRDRo_draw 800ms linear 87ms forwards;}.IgUPRDRo_22{stroke-dasharray:7 9;stroke-dashoffset:8;}.start .IgUPRDRo_22{animation:IgUPRDRo_draw 800ms linear 91ms forwards;}.IgUPRDRo_23{stroke-dasharray:7 9;stroke-dashoffset:8;}.start .IgUPRDRo_23{animation:IgUPRDRo_draw 800ms linear 95ms forwards;}.IgUPRDRo_24{stroke-dasharray:7 9;stroke-dashoffset:8;}.start .IgUPRDRo_24{animation:IgUPRDRo_draw 800ms linear 100ms forwards;}.IgUPRDRo_25{stroke-dasharray:7 9;stroke-dashoffset:8;}.start .IgUPRDRo_25{animation:IgUPRDRo_draw 800ms linear 104ms forwards;}.IgUPRDRo_26{stroke-dasharray:7 9;stroke-dashoffset:8;}.start .IgUPRDRo_26{animation:IgUPRDRo_draw 800ms linear 108ms forwards;}.IgUPRDRo_27{stroke-dasharray:7 9;stroke-dashoffset:8;}.start .IgUPRDRo_27{animation:IgUPRDRo_draw 800ms linear 112ms forwards;}.IgUPRDRo_28{stroke-dasharray:7 9;stroke-dashoffset:8;}.start .IgUPRDRo_28{animation:IgUPRDRo_draw 800ms linear 116ms forwards;}.IgUPRDRo_29{stroke-dasharray:7 9;stroke-dashoffset:8;}.start .IgUPRDRo_29{animation:IgUPRDRo_draw 800ms linear 120ms forwards;}.IgUPRDRo_30{stroke-dasharray:7 9;stroke-dashoffset:8;}.start .IgUPRDRo_30{animation:IgUPRDRo_draw 800ms linear 125ms forwards;}.IgUPRDRo_31{stroke-dasharray:7 9;stroke-dashoffset:8;}.start .IgUPRDRo_31{animation:IgUPRDRo_draw 800ms linear 129ms forwards;}.IgUPRDRo_32{stroke-dasharray:7 9;stroke-dashoffset:8;}.start .IgUPRDRo_32{animation:IgUPRDRo_draw 800ms linear 133ms forwards;}.IgUPRDRo_33{stroke-dasharray:7 9;stroke-dashoffset:8;}.start .IgUPRDRo_33{animation:IgUPRDRo_draw 800ms linear 137ms forwards;}.IgUPRDRo_34{stroke-dasharray:7 9;stroke-dashoffset:8;}.start .IgUPRDRo_34{animation:IgUPRDRo_draw 800ms linear 141ms forwards;}.IgUPRDRo_35{stroke-dasharray:7 9;stroke-dashoffset:8;}.start .IgUPRDRo_35{animation:IgUPRDRo_draw 800ms linear 145ms forwards;}.IgUPRDRo_36{stroke-dasharray:7 9;stroke-dashoffset:8;}.start .IgUPRDRo_36{animation:IgUPRDRo_draw 800ms linear 150ms forwards;}.IgUPRDRo_37{stroke-dasharray:7 9;stroke-dashoffset:8;}.start .IgUPRDRo_37{animation:IgUPRDRo_draw 800ms linear 154ms forwards;}.IgUPRDRo_38{stroke-dasharray:7 9;stroke-dashoffset:8;}.start .IgUPRDRo_38{animation:IgUPRDRo_draw 800ms linear 158ms forwards;}.IgUPRDRo_39{stroke-dasharray:7 9;stroke-dashoffset:8;}.start .IgUPRDRo_39{animation:IgUPRDRo_draw 800ms linear 162ms forwards;}.IgUPRDRo_40{stroke-dasharray:7 9;stroke-dashoffset:8;}.start .IgUPRDRo_40{animation:IgUPRDRo_draw 800ms linear 166ms forwards;}.IgUPRDRo_41{stroke-dasharray:7 9;stroke-dashoffset:8;}.start .IgUPRDRo_41{animation:IgUPRDRo_draw 800ms linear 170ms forwards;}.IgUPRDRo_42{stroke-dasharray:7 9;stroke-dashoffset:8;}.start .IgUPRDRo_42{animation:IgUPRDRo_draw 800ms linear 175ms forwards;}.IgUPRDRo_43{stroke-dasharray:7 9;stroke-dashoffset:8;}.start .IgUPRDRo_43{animation:IgUPRDRo_draw 800ms linear 179ms forwards;}.IgUPRDRo_44{stroke-dasharray:7 9;stroke-dashoffset:8;}.start .IgUPRDRo_44{animation:IgUPRDRo_draw 800ms linear 183ms forwards;}.IgUPRDRo_45{stroke-dasharray:7 9;stroke-dashoffset:8;}.start .IgUPRDRo_45{animation:IgUPRDRo_draw 800ms linear 187ms forwards;}.IgUPRDRo_46{stroke-dasharray:7 9;stroke-dashoffset:8;}.start .IgUPRDRo_46{animation:IgUPRDRo_draw 800ms linear 191ms forwards;}.IgUPRDRo_47{stroke-dasharray:7 9;stroke-dashoffset:8;}.start .IgUPRDRo_47{animation:IgUPRDRo_draw 800ms linear 195ms forwards;}.IgUPRDRo_48{stroke-dasharray:7 9;stroke-dashoffset:8;}.start .IgUPRDRo_48{animation:IgUPRDRo_draw 800ms linear 200ms forwards;}.IgUPRDRo_49{stroke-dasharray:7 9;stroke-dashoffset:8;}.start .IgUPRDRo_49{animation:IgUPRDRo_draw 800ms linear 204ms forwards;}.IgUPRDRo_50{stroke-dasharray:7 9;stroke-dashoffset:8;}.start .IgUPRDRo_50{animation:IgUPRDRo_draw 800ms linear 208ms forwards;}.IgUPRDRo_51{stroke-dasharray:7 9;stroke-dashoffset:8;}.start .IgUPRDRo_51{animation:IgUPRDRo_draw 800ms linear 212ms forwards;}.IgUPRDRo_52{stroke-dasharray:7 9;stroke-dashoffset:8;}.start .IgUPRDRo_52{animation:IgUPRDRo_draw 800ms linear 216ms forwards;}.IgUPRDRo_53{stroke-dasharray:7 9;stroke-dashoffset:8;}.start .IgUPRDRo_53{animation:IgUPRDRo_draw 800ms linear 220ms forwards;}.IgUPRDRo_54{stroke-dasharray:7 9;stroke-dashoffset:8;}.start .IgUPRDRo_54{animation:IgUPRDRo_draw 800ms linear 225ms forwards;}.IgUPRDRo_55{stroke-dasharray:7 9;stroke-dashoffset:8;}.start .IgUPRDRo_55{animation:IgUPRDRo_draw 800ms linear 229ms forwards;}.IgUPRDRo_56{stroke-dasharray:7 9;stroke-dashoffset:8;}.start .IgUPRDRo_56{animation:IgUPRDRo_draw 800ms linear 233ms forwards;}.IgUPRDRo_57{stroke-dasharray:7 9;stroke-dashoffset:8;}.start .IgUPRDRo_57{animation:IgUPRDRo_draw 800ms linear 237ms forwards;}.IgUPRDRo_58{stroke-dasharray:7 9;stroke-dashoffset:8;}.start .IgUPRDRo_58{animation:IgUPRDRo_draw 800ms linear 241ms forwards;}.IgUPRDRo_59{stroke-dasharray:7 9;stroke-dashoffset:8;}.start .IgUPRDRo_59{animation:IgUPRDRo_draw 800ms linear 245ms forwards;}.IgUPRDRo_60{stroke-dasharray:7 9;stroke-dashoffset:8;}.start .IgUPRDRo_60{animation:IgUPRDRo_draw 800ms linear 250ms forwards;}.IgUPRDRo_61{stroke-dasharray:7 9;stroke-dashoffset:8;}.start .IgUPRDRo_61{animation:IgUPRDRo_draw 800ms linear 254ms forwards;}.IgUPRDRo_62{stroke-dasharray:7 9;stroke-dashoffset:8;}.start .IgUPRDRo_62{animation:IgUPRDRo_draw 800ms linear 258ms forwards;}.IgUPRDRo_63{stroke-dasharray:7 9;stroke-dashoffset:8;}.start .IgUPRDRo_63{animation:IgUPRDRo_draw 800ms linear 262ms forwards;}.IgUPRDRo_64{stroke-dasharray:7 9;stroke-dashoffset:8;}.start .IgUPRDRo_64{animation:IgUPRDRo_draw 800ms linear 266ms forwards;}.IgUPRDRo_65{stroke-dasharray:7 9;stroke-dashoffset:8;}.start .IgUPRDRo_65{animation:IgUPRDRo_draw 800ms linear 270ms forwards;}.IgUPRDRo_66{stroke-dasharray:7 9;stroke-dashoffset:8;}.start .IgUPRDRo_66{animation:IgUPRDRo_draw 800ms linear 275ms forwards;}.IgUPRDRo_67{stroke-dasharray:7 9;stroke-dashoffset:8;}.start .IgUPRDRo_67{animation:IgUPRDRo_draw 800ms linear 279ms forwards;}.IgUPRDRo_68{stroke-dasharray:7 9;stroke-dashoffset:8;}.start .IgUPRDRo_68{animation:IgUPRDRo_draw 800ms linear 283ms forwards;}.IgUPRDRo_69{stroke-dasharray:7 9;stroke-dashoffset:8;}.start .IgUPRDRo_69{animation:IgUPRDRo_draw 800ms linear 287ms forwards;}.IgUPRDRo_70{stroke-dasharray:7 9;stroke-dashoffset:8;}.start .IgUPRDRo_70{animation:IgUPRDRo_draw 800ms linear 291ms forwards;}.IgUPRDRo_71{stroke-dasharray:7 9;stroke-dashoffset:8;}.start .IgUPRDRo_71{animation:IgUPRDRo_draw 800ms linear 295ms forwards;}.IgUPRDRo_72{stroke-dasharray:7 9;stroke-dashoffset:8;}.start .IgUPRDRo_72{animation:IgUPRDRo_draw 800ms linear 300ms forwards;}.IgUPRDRo_73{stroke-dasharray:7 9;stroke-dashoffset:8;}.start .IgUPRDRo_73{animation:IgUPRDRo_draw 800ms linear 304ms forwards;}.IgUPRDRo_74{stroke-dasharray:7 9;stroke-dashoffset:8;}.start .IgUPRDRo_74{animation:IgUPRDRo_draw 800ms linear 308ms forwards;}.IgUPRDRo_75{stroke-dasharray:7 9;stroke-dashoffset:8;}.start .IgUPRDRo_75{animation:IgUPRDRo_draw 800ms linear 312ms forwards;}.IgUPRDRo_76{stroke-dasharray:7 9;stroke-dashoffset:8;}.start .IgUPRDRo_76{animation:IgUPRDRo_draw 800ms linear 316ms forwards;}.IgUPRDRo_77{stroke-dasharray:7 9;stroke-dashoffset:8;}.start .IgUPRDRo_77{animation:IgUPRDRo_draw 800ms linear 320ms forwards;}.IgUPRDRo_78{stroke-dasharray:7 9;stroke-dashoffset:8;}.start .IgUPRDRo_78{animation:IgUPRDRo_draw 800ms linear 325ms forwards;}.IgUPRDRo_79{stroke-dasharray:7 9;stroke-dashoffset:8;}.start .IgUPRDRo_79{animation:IgUPRDRo_draw 800ms linear 329ms forwards;}.IgUPRDRo_80{stroke-dasharray:7 9;stroke-dashoffset:8;}.start .IgUPRDRo_80{animation:IgUPRDRo_draw 800ms linear 333ms forwards;}.IgUPRDRo_81{stroke-dasharray:7 9;stroke-dashoffset:8;}.start .IgUPRDRo_81{animation:IgUPRDRo_draw 800ms linear 337ms forwards;}.IgUPRDRo_82{stroke-dasharray:7 9;stroke-dashoffset:8;}.start .IgUPRDRo_82{animation:IgUPRDRo_draw 800ms linear 341ms forwards;}.IgUPRDRo_83{stroke-dasharray:7 9;stroke-dashoffset:8;}.start .IgUPRDRo_83{animation:IgUPRDRo_draw 800ms linear 345ms forwards;}.IgUPRDRo_84{stroke-dasharray:7 9;stroke-dashoffset:8;}.start .IgUPRDRo_84{animation:IgUPRDRo_draw 800ms linear 350ms forwards;}.IgUPRDRo_85{stroke-dasharray:7 9;stroke-dashoffset:8;}.start .IgUPRDRo_85{animation:IgUPRDRo_draw 800ms linear 354ms forwards;}.IgUPRDRo_86{stroke-dasharray:7 9;stroke-dashoffset:8;}.start .IgUPRDRo_86{animation:IgUPRDRo_draw 800ms linear 358ms forwards;}.IgUPRDRo_87{stroke-dasharray:7 9;stroke-dashoffset:8;}.start .IgUPRDRo_87{animation:IgUPRDRo_draw 800ms linear 362ms forwards;}.IgUPRDRo_88{stroke-dasharray:7 9;stroke-dashoffset:8;}.start .IgUPRDRo_88{animation:IgUPRDRo_draw 800ms linear 366ms forwards;}.IgUPRDRo_89{stroke-dasharray:7 9;stroke-dashoffset:8;}.start .IgUPRDRo_89{animation:IgUPRDRo_draw 800ms linear 370ms forwards;}.IgUPRDRo_90{stroke-dasharray:7 9;stroke-dashoffset:8;}.start .IgUPRDRo_90{animation:IgUPRDRo_draw 800ms linear 375ms forwards;}.IgUPRDRo_91{stroke-dasharray:7 9;stroke-dashoffset:8;}.start .IgUPRDRo_91{animation:IgUPRDRo_draw 800ms linear 379ms forwards;}.IgUPRDRo_92{stroke-dasharray:7 9;stroke-dashoffset:8;}.start .IgUPRDRo_92{animation:IgUPRDRo_draw 800ms linear 383ms forwards;}.IgUPRDRo_93{stroke-dasharray:7 9;stroke-dashoffset:8;}.start .IgUPRDRo_93{animation:IgUPRDRo_draw 800ms linear 387ms forwards;}.IgUPRDRo_94{stroke-dasharray:7 9;stroke-dashoffset:8;}.start .IgUPRDRo_94{animation:IgUPRDRo_draw 800ms linear 391ms forwards;}.IgUPRDRo_95{stroke-dasharray:7 9;stroke-dashoffset:8;}.start .IgUPRDRo_95{animation:IgUPRDRo_draw 800ms linear 395ms forwards;}.IgUPRDRo_96{stroke-dasharray:80 82;stroke-dashoffset:81;}.start .IgUPRDRo_96{animation:IgUPRDRo_draw 800ms linear 400ms forwards;}@keyframes IgUPRDRo_draw{100%{stroke-dashoffset:0;}}@keyframes IgUPRDRo_fade{0%{stroke-opacity:1;}92.5925925925926%{stroke-opacity:1;}100%{stroke-opacity:0;}}</style></svg>