<svg xmlns="http://www.w3.org/2000/svg" viewBox="0 0 140.6 140.6" id="team-innovative" class="" style=""><defs><style>#team-innovative .cls-1,#team-innovative .cls-7{fill:#fff;}#team-innovative .cls-2,#team-innovative .cls-3,#team-innovative .cls-5{fill:none;}#team-innovative .cls-2{stroke:#a5bac9;}#team-innovative .cls-2,#team-innovative .cls-3,#team-innovative .cls-5,#team-innovative .cls-7{stroke-miterlimit:10;}#team-innovative .cls-3{stroke:#d1dbe3;}#team-innovative .cls-3,#team-innovative .cls-7{stroke-width:4px;}#team-innovative .cls-4{fill:#a5bac9;}#team-innovative .cls-5,#team-innovative .cls-7{stroke:#397591;}#team-innovative .cls-5{stroke-width:3.89px;}#team-innovative .cls-6{fill:#d1dbe3;}#team-innovative .cls-8{fill:#397591;}</style></defs><title>Team_Innovative</title><g id="Layer_2_innovate" data-name="Layer 2"><g id="_2_innovate" data-name="2"><path class="cls-1 iMiHaUHd_0" d="M0,70.3A70.3,70.3 0,1,1 140.6,70.3A70.3,70.3 0,1,1 0,70.3"></path><path class="cls-2 iMiHaUHd_1" d="M70.2,45.85L70.2,100.13"></path><path class="cls-3 iMiHaUHd_2" d="M43.79,105.95L78.23,105.95"></path><path class="cls-4 iMiHaUHd_3" d="M34.79,91.91A1,1 0,1,1 36.79,91.91A1,1 0,1,1 34.79,91.91"></path><path class="cls-4 iMiHaUHd_4" d="M34.79,95.91A1,1 0,1,1 36.79,95.91A1,1 0,1,1 34.79,95.91"></path><path class="cls-4 iMiHaUHd_5" d="M30.79,91.91A1,1 0,1,1 32.79,91.91A1,1 0,1,1 30.79,91.91"></path><path class="cls-4 iMiHaUHd_6" d="M26.66,91.91A1,1 0,1,1 28.66,91.91A1,1 0,1,1 26.66,91.91"></path><path class="cls-4 iMiHaUHd_7" d="M30.79,95.91A1,1 0,1,1 32.79,95.91A1,1 0,1,1 30.79,95.91"></path><path class="cls-4 iMiHaUHd_8" d="M38.79,100.04A1,1 0,1,1 40.79,100.04A1,1 0,1,1 38.79,100.04"></path><path class="cls-4 iMiHaUHd_9" d="M38.79,104.04A1,1 0,1,1 40.79,104.04A1,1 0,1,1 38.79,104.04"></path><path class="cls-4 iMiHaUHd_10" d="M34.79,100.04A1,1 0,1,1 36.79,100.04A1,1 0,1,1 34.79,100.04"></path><path class="cls-5 iMiHaUHd_11" width="55.75" height="54.81" d="M 48.42,45.23 L 92.17,45.23 A 6,6,0,0,1,98.17,51.23 L 98.17,94.03999999999999 A 6,6,0,0,1,92.17,100.03999999999999 L 48.42,100.03999999999999 A 6,6,0,0,1,42.42,94.03999999999999 L 42.42,51.23 A 6,6,0,0,1,48.42,45.23"></path><path class="cls-6 iMiHaUHd_12" d="M80.6,98.18L96.24,98.18L96.24,82.23L80.6,98.18Z"></path><path class="cls-7 iMiHaUHd_13" width="5.22" height="44.96" transform="translate(98.68 -31.66) rotate(45)" d="M84.94 80.81 L90.16 80.81 L90.16 125.77000000000001 L84.94 125.77000000000001 Z"></path><path class="cls-8 iMiHaUHd_14" d="M110.39,86.88L103.9,80.39L116.08,74.7L110.39,86.88Z"></path><path class="cls-8 iMiHaUHd_15" width="9.18" height="3.37" transform="translate(91.02 -50.08) rotate(45)" d="M101.37 83.14 L110.55000000000001 83.14 L110.55000000000001 86.51 L101.37 86.51 Z"></path><path class="cls-8 iMiHaUHd_16" d="M72.03,116.53L70.2,111.29L81.73,99.76L90.94,97.61L72.03,116.53Z"></path><path class="cls-6 iMiHaUHd_17" d="M60.42,77.58L58.05,77.54L58.05,47.29L60.42,47.29L60.42,77.58Z"></path><path class="cls-4 iMiHaUHd_18" d="M89.34,71.54l1.18.6.54-1a8.58,8.58,0,0,0-9.9-4.92l1,.71-.48.94A7,7,0,0,1,89.34,71.54Z"></path><path class="cls-4 iMiHaUHd_19" d="M75,77.55l.55-1,1.13.55a7,7,0,0,1,3.63-8.79l.44-1-1.23-.52A8.69,8.69,0,0,0,75,77.55Z"></path><path class="cls-4 iMiHaUHd_20" d="M85.82,81.21a7,7,0,0,1-8.59-3.13L76,77.47l-.32,1.35a8.7,8.7,0,0,0,10.8,4l0,0-1-.49.5-1.15Z"></path><path class="cls-4 iMiHaUHd_21" d="M89.88,73a7,7,0,0,1-3.06,7.71l-.25,1.19,1,.38a8.7,8.7,0,0,0,4-9.83l-.64,1Z"></path><path class="cls-4 iMiHaUHd_22" d="M78.19,52.12v1.55a14.2,14.2,0,0,1,5,2.93,14.3,14.3,0,0,1,1.13-.93A11.32,11.32,0,0,0,78.19,52.12Z"></path><path class="cls-4 iMiHaUHd_23" d="M77.24,54.34V57h0a10.39,10.39,0,0,1,6,3.89,8.81,8.81,0,0,1,.71-.81,4.94,4.94,0,0,1,.7-.69A13.15,13.15,0,0,0,77.24,54.34Z"></path><path class="cls-4 iMiHaUHd_24" d="M89.2,54.35a13.39,13.39,0,0,0-6,3.38,11.76,11.76,0,0,1,1.41,1.67A9.4,9.4,0,0,1,89.2,57Z"></path><path class="cls-4 iMiHaUHd_25" d="M84.64,59.4Z"></path><path class="cls-4 iMiHaUHd_26" d="M88.28,52.12a11.45,11.45,0,0,0-5,2.45,10.62,10.62,0,0,1,1.12,1.1,14.12,14.12,0,0,1,3.92-2Z"></path><path class="cls-8 iMiHaUHd_27" d="M58.24,79.2,56,77.29,54.09,79.2v-36a3.71,3.71,0,0,1,4.15,0Z"></path><path class="cls-3 iMiHaUHd_28" d="M78.17,126.04L113.51,90.91"></path><path class="cls-4 iMiHaUHd_29" d="M62.55,124.63a2,2,0,0,1-1.7-2.26h0a2,2,0,0,1,2.26-1.7h0a2,2,0,0,1,1.7,2.26h0a2,2,0,0,1-2,1.72h0Zm-15-4.38h0a2,2,0,0,1-1-2.65h0a2,2,0,0,1,2.65-1h0a2,2,0,0,1,1,2.65h0a2,2,0,0,1-1.82,1.17h0A2,2,0,0,1,47.57,120.25Zm-13.14-8.43a2,2,0,0,1-.21-2.82h0a2,2,0,0,1,2.82-.2h0a2,2,0,0,1,.21,2.82h0a2,2,0,0,1-1.52.69h0A2,2,0,0,1,34.43,111.82ZM24.18,100h0a2,2,0,0,1,.6-2.77h0a2,2,0,0,1,2.76.59h0a2,2,0,0,1-.59,2.77h0a2.06,2.06,0,0,1-1.09.32h0A2,2,0,0,1,24.18,100ZM17.67,85.86h0A2,2,0,0,1,19,83.37h0a2,2,0,0,1,2.48,1.35h0a2,2,0,0,1-1.35,2.49h0a2.24,2.24,0,0,1-.57.08h0A2,2,0,0,1,17.67,85.86Zm102.81,1.25a2,2,0,0,1-1.35-2.48h0a2,2,0,0,1,2.49-1.36h0A2,2,0,0,1,123,85.75h0A2,2,0,0,1,121,87.19h0A2.23,2.23,0,0,1,120.48,87.11Zm-105-16.7a2,2,0,0,1,2-2h0a2,2,0,0,1,2,2h0a2,2,0,0,1-2,2h0A2,2,0,0,1,15.43,70.41Zm105.74-.11v-.08h0V70.1h0a2,2,0,0,1,2-2h0a2,2,0,0,1,2,2h0v.11h0v.11h0a2,2,0,0,1-2,2h0A2,2,0,0,1,121.17,70.3ZM19,57.43A2,2,0,0,1,17.6,55h0a2,2,0,0,1,2.48-1.36h0a2,2,0,0,1,1.37,2.48h0a2,2,0,0,1-1.92,1.44h0A1.85,1.85,0,0,1,19,57.43Zm100.11-1.65a2,2,0,0,1,1.34-2.49h0a2,2,0,0,1,2.49,1.35h0a2,2,0,0,1-1.35,2.48h0a1.88,1.88,0,0,1-.57.09h0A2,2,0,0,1,119.07,55.78ZM24.67,43.51a2,2,0,0,1-.61-2.77h0a2,2,0,0,1,2.77-.6h0a2,2,0,0,1,.6,2.76h0a2,2,0,0,1-1.69.92h0A2,2,0,0,1,24.67,43.51ZM113,42.64a2,2,0,0,1,.59-2.77h0a2,2,0,0,1,2.77.59h0a2,2,0,0,1-.59,2.77h0a2,2,0,0,1-1.09.32h0A2,2,0,0,1,113,42.64ZM34.07,31.74a2,2,0,0,1,.19-2.82h0a2,2,0,0,1,2.82.2h0a2,2,0,0,1-.19,2.82h0a2,2,0,0,1-1.31.49h0A2,2,0,0,1,34.07,31.74Zm69.41,0a2,2,0,0,1-.21-2.82h0a2,2,0,0,1,2.82-.21h0a2,2,0,0,1,.21,2.82h0a2,2,0,0,1-1.52.69h0A2,2,0,0,1,103.48,31.74ZM46.39,23.09a2,2,0,0,1,1-2.65h0a2,2,0,0,1,2.66,1h0a2,2,0,0,1-1,2.65h0a1.8,1.8,0,0,1-.84.18h0A2,2,0,0,1,46.39,23.09Zm44.89.85a2,2,0,0,1-1-2.64h0a2,2,0,0,1,2.65-1h0a2,2,0,0,1,1,2.65h0a2,2,0,0,1-1.82,1.17h0A1.89,1.89,0,0,1,91.28,23.94ZM60.64,18.27A2,2,0,0,1,62.33,16h0a2,2,0,0,1,2.27,1.7h0A2,2,0,0,1,62.91,20h0a1.46,1.46,0,0,1-.29,0h0A2,2,0,0,1,60.64,18.27Zm16.74,1.65a2,2,0,0,1-1.7-2.26h0A2,2,0,0,1,77.94,16h0a2,2,0,0,1,1.7,2.26h0a2,2,0,0,1-2,1.72h0Z"></path></g></g><style data-made-with="vivus-instant">.iMiHaUHd_0{stroke-dasharray:442 444;stroke-dashoffset:443;}.start .iMiHaUHd_0{animation:iMiHaUHd_draw 800ms linear 0ms forwards;}.iMiHaUHd_1{stroke-dasharray:55 57;stroke-dashoffset:56;}.start .iMiHaUHd_1{animation:iMiHaUHd_draw 800ms linear 13ms forwards;}.iMiHaUHd_2{stroke-dasharray:35 37;stroke-dashoffset:36;}.start .iMiHaUHd_2{animation:iMiHaUHd_draw 800ms linear 27ms forwards;}.iMiHaUHd_3{stroke-dasharray:7 9;stroke-dashoffset:8;}.start .iMiHaUHd_3{animation:iMiHaUHd_draw 800ms linear 41ms forwards;}.iMiHaUHd_4{stroke-dasharray:7 9;stroke-dashoffset:8;}.start .iMiHaUHd_4{animation:iMiHaUHd_draw 800ms linear 55ms forwards;}.iMiHaUHd_5{stroke-dasharray:7 9;stroke-dashoffset:8;}.start .iMiHaUHd_5{animation:iMiHaUHd_draw 800ms linear 68ms forwards;}.iMiHaUHd_6{stroke-dasharray:7 9;stroke-dashoffset:8;}.start .iMiHaUHd_6{animation:iMiHaUHd_draw 800ms linear 82ms forwards;}.iMiHaUHd_7{stroke-dasharray:7 9;stroke-dashoffset:8;}.start .iMiHaUHd_7{animation:iMiHaUHd_draw 800ms linear 96ms forwards;}.iMiHaUHd_8{stroke-dasharray:7 9;stroke-dashoffset:8;}.start .iMiHaUHd_8{animation:iMiHaUHd_draw 800ms linear 110ms forwards;}.iMiHaUHd_9{stroke-dasharray:7 9;stroke-dashoffset:8;}.start .iMiHaUHd_9{animation:iMiHaUHd_draw 800ms linear 124ms forwards;}.iMiHaUHd_10{stroke-dasharray:7 9;stroke-dashoffset:8;}.start .iMiHaUHd_10{animation:iMiHaUHd_draw 800ms linear 137ms forwards;}.iMiHaUHd_11{stroke-dasharray:211 213;stroke-dashoffset:212;}.start .iMiHaUHd_11{animation:iMiHaUHd_draw 800ms linear 151ms forwards;}.iMiHaUHd_12{stroke-dasharray:54 56;stroke-dashoffset:55;}.start .iMiHaUHd_12{animation:iMiHaUHd_draw 800ms linear 165ms forwards;}.iMiHaUHd_13{stroke-dasharray:101 103;stroke-dashoffset:102;}.start .iMiHaUHd_13{animation:iMiHaUHd_draw 800ms linear 179ms forwards;}.iMiHaUHd_14{stroke-dasharray:37 39;stroke-dashoffset:38;}.start .iMiHaUHd_14{animation:iMiHaUHd_draw 800ms linear 193ms forwards;}.iMiHaUHd_15{stroke-dasharray:26 28;stroke-dashoffset:27;}.start .iMiHaUHd_15{animation:iMiHaUHd_draw 800ms linear 206ms forwards;}.iMiHaUHd_16{stroke-dasharray:59 61;stroke-dashoffset:60;}.start .iMiHaUHd_16{animation:iMiHaUHd_draw 800ms linear 220ms forwards;}.iMiHaUHd_17{stroke-dasharray:66 68;stroke-dashoffset:67;}.start .iMiHaUHd_17{animation:iMiHaUHd_draw 800ms linear 234ms forwards;}.iMiHaUHd_18{stroke-dasharray:26 28;stroke-dashoffset:27;}.start .iMiHaUHd_18{animation:iMiHaUHd_draw 800ms linear 248ms forwards;}.iMiHaUHd_19{stroke-dasharray:29 31;stroke-dashoffset:30;}.start .iMiHaUHd_19{animation:iMiHaUHd_draw 800ms linear 262ms forwards;}.iMiHaUHd_20{stroke-dasharray:28 30;stroke-dashoffset:29;}.start .iMiHaUHd_20{animation:iMiHaUHd_draw 800ms linear 275ms forwards;}.iMiHaUHd_21{stroke-dasharray:25 27;stroke-dashoffset:26;}.start .iMiHaUHd_21{animation:iMiHaUHd_draw 800ms linear 289ms forwards;}.iMiHaUHd_22{stroke-dasharray:17 19;stroke-dashoffset:18;}.start .iMiHaUHd_22{animation:iMiHaUHd_draw 800ms linear 303ms forwards;}.iMiHaUHd_23{stroke-dasharray:22 24;stroke-dashoffset:23;}.start .iMiHaUHd_23{animation:iMiHaUHd_draw 800ms linear 317ms forwards;}.iMiHaUHd_24{stroke-dasharray:18 20;stroke-dashoffset:19;}.start .iMiHaUHd_24{animation:iMiHaUHd_draw 800ms linear 331ms forwards;}.iMiHaUHd_25{stroke-dasharray:0 2;stroke-dashoffset:1;}.start .iMiHaUHd_25{animation:iMiHaUHd_draw 800ms linear 344ms forwards;}.iMiHaUHd_26{stroke-dasharray:14 16;stroke-dashoffset:15;}.start .iMiHaUHd_26{animation:iMiHaUHd_draw 800ms linear 358ms forwards;}.iMiHaUHd_27{stroke-dasharray:83 85;stroke-dashoffset:84;}.start .iMiHaUHd_27{animation:iMiHaUHd_draw 800ms linear 372ms forwards;}.iMiHaUHd_28{stroke-dasharray:50 52;stroke-dashoffset:51;}.start .iMiHaUHd_28{animation:iMiHaUHd_draw 800ms linear 386ms forwards;}.iMiHaUHd_29{stroke-dasharray:228 230;stroke-dashoffset:229;}.start .iMiHaUHd_29{animation:iMiHaUHd_draw 800ms linear 400ms forwards;}@keyframes iMiHaUHd_draw{100%{stroke-dashoffset:0;}}@keyframes iMiHaUHd_fade{0%{stroke-opacity:1;}92.5925925925926%{stroke-opacity:1;}100%{stroke-opacity:0;}}</style></svg>