<svg xmlns="http://www.w3.org/2000/svg" xmlns:xlink="http://www.w3.org/1999/xlink" viewBox="0 0 140.6 140.6" id="team-collaborate" class="" style=""><defs><style>#team-collaborate .cls-1,#team-collaborate .cls-3,#team-collaborate .cls-5,#team-collaborate .cls-6,#team-collaborate .cls-7,#team-collaborate .cls-8{fill:none;}#team-collaborate .cls-2,#team-collaborate .cls-9{fill:#fff;}#team-collaborate .cls-3,#team-collaborate .cls-5{stroke:#d1dbe3;}#team-collaborate .cls-3,#team-collaborate .cls-5,#team-collaborate .cls-6,#team-collaborate .cls-7,#team-collaborate .cls-8,#team-collaborate .cls-9{stroke-miterlimit:10;}#team-collaborate .cls-3{stroke-width:6.45px;}#team-collaborate .cls-4{clip-path:url(#clip-path);}#team-collaborate .cls-5{stroke-width:5.32px;}#team-collaborate .cls-6,.cls-7,#team-collaborate .cls-8{stroke:#fff;}#team-collaborate .cls-6{stroke-width:5.65px;}#team-collaborate .cls-7{stroke-width:6px;}#team-collaborate .cls-8{stroke-width:5px;}#team-collaborate .cls-9{stroke:#397591;stroke-width:4px;}#team-collaborate .cls-10{clip-path:url(#clip-path-2);}#team-collaborate .cls-11{fill:#a5bac9;}</style><clipPath id="clip-path"><path class="cls-1 bsCFylJp_0" width="80.5" height="41.7" d="M30.05 73.83 L110.55 73.83 L110.55 115.53 L30.05 115.53 Z"></path></clipPath><clipPath id="clip-path-2"><path class="cls-1 bsCFylJp_1" width="34.5" height="32.88" d="M53.47 54.03 L87.97 54.03 L87.97 86.91 L53.47 86.91 Z"></path></clipPath></defs><title>Team_Collaborate</title><g id="Layer_2_collab" data-name="Layer 2"><g id="_2_collaborate" data-name="2"><path class="cls-2 bsCFylJp_2" d="M0,70.3A70.3,70.3 0,1,1 140.6,70.3A70.3,70.3 0,1,1 0,70.3"></path><path class="cls-3 bsCFylJp_3" d="M60.77,102.87A10.01,10.01 0,1,1 80.79,102.87A10.01,10.01 0,1,1 60.77,102.87"></path><g class="cls-4"><path class="cls-5 bsCFylJp_4" d="M37.42,73.83A33.36,33.36 0,1,1 104.14,73.83A33.36,33.36 0,1,1 37.42,73.83"></path></g><path class="cls-6 bsCFylJp_5" d="M62.02,99.7A8.76,8.76 0,1,1 79.54,99.7A8.76,8.76 0,1,1 62.02,99.7"></path><path class="cls-7 bsCFylJp_6" d="M33.74,72.65A7.75,7.75 0,1,1 49.24,72.65A7.75,7.75 0,1,1 33.74,72.65"></path><path class="cls-7 bsCFylJp_7" d="M92.5,72.65A7.75,7.75 0,1,1 108,72.65A7.75,7.75 0,1,1 92.5,72.65"></path><path class="cls-8 bsCFylJp_8" d="M39.400000000000006,70.41A31.38,31.38 0,1,1 102.16,70.41A31.38,31.38 0,1,1 39.400000000000006,70.41"></path><path class="cls-9 bsCFylJp_9" d="M41.32,70.3A29.46,29.46 0,1,1 100.24000000000001,70.3A29.46,29.46 0,1,1 41.32,70.3"></path><path class="cls-9 bsCFylJp_10" d="M63.03,41.18A7.75,7.75 0,1,1 78.53,41.18A7.75,7.75 0,1,1 63.03,41.18"></path><path class="cls-9 bsCFylJp_11" d="M63.03,99.76A7.75,7.75 0,1,1 78.53,99.76A7.75,7.75 0,1,1 63.03,99.76"></path><path class="cls-9 bsCFylJp_12" d="M92.33,70.47A7.75,7.75 0,1,1 107.83,70.47A7.75,7.75 0,1,1 92.33,70.47"></path><path class="cls-9 bsCFylJp_13" d="M33.74,70.47A7.75,7.75 0,1,1 49.24,70.47A7.75,7.75 0,1,1 33.74,70.47"></path><path class="cls-9 bsCFylJp_14" d="M33.74,70.47A7.75,7.75 0,1,1 49.24,70.47A7.75,7.75 0,1,1 33.74,70.47"></path><g class="cls-10"><path class="cls-11 bsCFylJp_15" d="M75.77,61.05A1,1 0,1,1 77.77,61.05A1,1 0,1,1 75.77,61.05"></path><path class="cls-11 bsCFylJp_16" d="M75.77,65.05A1,1 0,1,1 77.77,65.05A1,1 0,1,1 75.77,65.05"></path><path class="cls-11 bsCFylJp_17" d="M71.77,61.05A1,1 0,1,1 73.77,61.05A1,1 0,1,1 71.77,61.05"></path><path class="cls-11 bsCFylJp_18" d="M71.77,65.05A1,1 0,1,1 73.77,65.05A1,1 0,1,1 71.77,65.05"></path><path class="cls-11 bsCFylJp_19" d="M75.77,69.05A1,1 0,1,1 77.77,69.05A1,1 0,1,1 75.77,69.05"></path><path class="cls-11 bsCFylJp_20" d="M71.77,69.05A1,1 0,1,1 73.77,69.05A1,1 0,1,1 71.77,69.05"></path><path class="cls-11 bsCFylJp_21" d="M75.77,73.05A1,1 0,1,1 77.77,73.05A1,1 0,1,1 75.77,73.05"></path><path class="cls-11 bsCFylJp_22" d="M71.77,73.05A1,1 0,1,1 73.77,73.05A1,1 0,1,1 71.77,73.05"></path><path class="cls-11 bsCFylJp_23" d="M75.77,77.05A1,1 0,1,1 77.77,77.05A1,1 0,1,1 75.77,77.05"></path><path class="cls-11 bsCFylJp_24" d="M71.77,77.05A1,1 0,1,1 73.77,77.05A1,1 0,1,1 71.77,77.05"></path><path class="cls-11 bsCFylJp_25" d="M75.77,57.05A1,1 0,1,1 77.77,57.05A1,1 0,1,1 75.77,57.05"></path><path class="cls-11 bsCFylJp_26" d="M71.77,57.05A1,1 0,1,1 73.77,57.05A1,1 0,1,1 71.77,57.05"></path><path class="cls-11 bsCFylJp_27" d="M67.77,61.05A1,1 0,1,1 69.77,61.05A1,1 0,1,1 67.77,61.05"></path><path class="cls-11 bsCFylJp_28" d="M67.77,65.05A1,1 0,1,1 69.77,65.05A1,1 0,1,1 67.77,65.05"></path><path class="cls-11 bsCFylJp_29" d="M63.769999999999996,61.05A1,1 0,1,1 65.77,61.05A1,1 0,1,1 63.769999999999996,61.05"></path><path class="cls-11 bsCFylJp_30" d="M63.769999999999996,65.05A1,1 0,1,1 65.77,65.05A1,1 0,1,1 63.769999999999996,65.05"></path><path class="cls-11 bsCFylJp_31" d="M67.77,69.05A1,1 0,1,1 69.77,69.05A1,1 0,1,1 67.77,69.05"></path><path class="cls-11 bsCFylJp_32" d="M63.769999999999996,69.05A1,1 0,1,1 65.77,69.05A1,1 0,1,1 63.769999999999996,69.05"></path><path class="cls-11 bsCFylJp_33" d="M67.77,73.05A1,1 0,1,1 69.77,73.05A1,1 0,1,1 67.77,73.05"></path><path class="cls-11 bsCFylJp_34" d="M63.769999999999996,73.05A1,1 0,1,1 65.77,73.05A1,1 0,1,1 63.769999999999996,73.05"></path><path class="cls-11 bsCFylJp_35" d="M59.77,65.05A1,1 0,1,1 61.77,65.05A1,1 0,1,1 59.77,65.05"></path><path class="cls-11 bsCFylJp_36" d="M59.77,69.05A1,1 0,1,1 61.77,69.05A1,1 0,1,1 59.77,69.05"></path><path class="cls-11 bsCFylJp_37" d="M59.77,73.05A1,1 0,1,1 61.77,73.05A1,1 0,1,1 59.77,73.05"></path><path class="cls-11 bsCFylJp_38" d="M55.77,65.05A1,1 0,1,1 57.77,65.05A1,1 0,1,1 55.77,65.05"></path><path class="cls-11 bsCFylJp_39" d="M55.77,69.05A1,1 0,1,1 57.77,69.05A1,1 0,1,1 55.77,69.05"></path><path class="cls-11 bsCFylJp_40" d="M55.77,73.05A1,1 0,1,1 57.77,73.05A1,1 0,1,1 55.77,73.05"></path><path class="cls-11 bsCFylJp_41" d="M83.77,65.05A1,1 0,1,1 85.77,65.05A1,1 0,1,1 83.77,65.05"></path><path class="cls-11 bsCFylJp_42" d="M83.77,69.05A1,1 0,1,1 85.77,69.05A1,1 0,1,1 83.77,69.05"></path><path class="cls-11 bsCFylJp_43" d="M83.77,73.05A1,1 0,1,1 85.77,73.05A1,1 0,1,1 83.77,73.05"></path><path class="cls-11 bsCFylJp_44" d="M79.77,65.05A1,1 0,1,1 81.77,65.05A1,1 0,1,1 79.77,65.05"></path><path class="cls-11 bsCFylJp_45" d="M79.77,69.05A1,1 0,1,1 81.77,69.05A1,1 0,1,1 79.77,69.05"></path><path class="cls-11 bsCFylJp_46" d="M79.77,73.05A1,1 0,1,1 81.77,73.05A1,1 0,1,1 79.77,73.05"></path><path class="cls-11 bsCFylJp_47" d="M67.77,77.05A1,1 0,1,1 69.77,77.05A1,1 0,1,1 67.77,77.05"></path><path class="cls-11 bsCFylJp_48" d="M63.769999999999996,77.05A1,1 0,1,1 65.77,77.05A1,1 0,1,1 63.769999999999996,77.05"></path><path class="cls-11 bsCFylJp_49" d="M67.77,57.05A1,1 0,1,1 69.77,57.05A1,1 0,1,1 67.77,57.05"></path><path class="cls-11 bsCFylJp_50" d="M63.769999999999996,57.05A1,1 0,1,1 65.77,57.05A1,1 0,1,1 63.769999999999996,57.05"></path><path class="cls-11 bsCFylJp_51" d="M75.77,81.05A1,1 0,1,1 77.77,81.05A1,1 0,1,1 75.77,81.05"></path><path class="cls-11 bsCFylJp_52" d="M71.77,81.05A1,1 0,1,1 73.77,81.05A1,1 0,1,1 71.77,81.05"></path><path class="cls-11 bsCFylJp_53" d="M67.77,81.05A1,1 0,1,1 69.77,81.05A1,1 0,1,1 67.77,81.05"></path><path class="cls-11 bsCFylJp_54" d="M63.769999999999996,81.05A1,1 0,1,1 65.77,81.05A1,1 0,1,1 63.769999999999996,81.05"></path></g><path class="cls-11 bsCFylJp_55" d="M62.55,124.63a2,2,0,0,1-1.7-2.26h0a2,2,0,0,1,2.26-1.7h0a2,2,0,0,1,1.7,2.26h0a2,2,0,0,1-2,1.72h0Zm13.34-1.72a2,2,0,0,1,1.7-2.26h0a2,2,0,0,1,2.26,1.7h0a2,2,0,0,1-1.69,2.26h0l-.29,0h0A2,2,0,0,1,75.89,122.91Zm-28.32-2.66h0a2,2,0,0,1-1-2.65h0a2,2,0,0,1,2.65-1h0a2,2,0,0,1,1,2.65h0a2,2,0,0,1-1.82,1.17h0A2,2,0,0,1,47.57,120.25Zm42.91-1a2,2,0,0,1,1-2.65h0a2,2,0,0,1,2.65,1h0a2,2,0,0,1-1,2.65h0a2.12,2.12,0,0,1-.84.18h0A2,2,0,0,1,90.48,119.22Zm-56-7.4a2,2,0,0,1-.21-2.82h0a2,2,0,0,1,2.82-.2h0a2,2,0,0,1,.21,2.82h0a2,2,0,0,1-1.52.69h0A2,2,0,0,1,34.43,111.82Zm69-.27a2,2,0,0,1,.2-2.82h0a2,2,0,0,1,2.82.2h0a2,2,0,0,1-.2,2.82h0a2,2,0,0,1-1.31.49h0A2,2,0,0,1,103.43,111.55ZM24.18,100h0a2,2,0,0,1,.6-2.77h0a2,2,0,0,1,2.76.59h0a2,2,0,0,1-.59,2.77h0a2.06,2.06,0,0,1-1.09.32h0A2,2,0,0,1,24.18,100Zm89.53.51a2,2,0,0,1-.6-2.76h0a2,2,0,0,1,2.76-.6h0a2,2,0,0,1,.61,2.76h0a2,2,0,0,1-1.69.92h0A2,2,0,0,1,113.71,100.55Zm-96-14.69h0A2,2,0,0,1,19,83.37h0a2,2,0,0,1,2.48,1.35h0a2,2,0,0,1-1.35,2.49h0a2.24,2.24,0,0,1-.57.08h0A2,2,0,0,1,17.67,85.86Zm102.81,1.25a2,2,0,0,1-1.35-2.48h0a2,2,0,0,1,2.49-1.36h0A2,2,0,0,1,123,85.75h0A2,2,0,0,1,121,87.19h0A2.23,2.23,0,0,1,120.48,87.11Zm-105-16.7a2,2,0,0,1,2-2h0a2,2,0,0,1,2,2h0a2,2,0,0,1-2,2h0A2,2,0,0,1,15.43,70.41Zm105.74-.11v-.08h0V70.1h0a2,2,0,0,1,2-2h0a2,2,0,0,1,2,2h0v.11h0v.11h0a2,2,0,0,1-2,2h0A2,2,0,0,1,121.17,70.3ZM19,57.43A2,2,0,0,1,17.6,55h0a2,2,0,0,1,2.48-1.36h0a2,2,0,0,1,1.37,2.48h0a2,2,0,0,1-1.92,1.44h0A1.85,1.85,0,0,1,19,57.43Zm100.11-1.65a2,2,0,0,1,1.34-2.49h0a2,2,0,0,1,2.49,1.35h0a2,2,0,0,1-1.35,2.48h0a1.88,1.88,0,0,1-.57.09h0A2,2,0,0,1,119.07,55.78ZM24.67,43.51a2,2,0,0,1-.61-2.77h0a2,2,0,0,1,2.77-.6h0a2,2,0,0,1,.6,2.76h0a2,2,0,0,1-1.69.92h0A2,2,0,0,1,24.67,43.51ZM113,42.64a2,2,0,0,1,.59-2.77h0a2,2,0,0,1,2.77.59h0a2,2,0,0,1-.59,2.77h0a2,2,0,0,1-1.09.32h0A2,2,0,0,1,113,42.64ZM34.07,31.74a2,2,0,0,1,.19-2.82h0a2,2,0,0,1,2.82.2h0a2,2,0,0,1-.19,2.82h0a2,2,0,0,1-1.31.49h0A2,2,0,0,1,34.07,31.74Zm69.41,0a2,2,0,0,1-.21-2.82h0a2,2,0,0,1,2.82-.21h0a2,2,0,0,1,.21,2.82h0a2,2,0,0,1-1.52.69h0A2,2,0,0,1,103.48,31.74ZM46.39,23.09a2,2,0,0,1,1-2.65h0a2,2,0,0,1,2.66,1h0a2,2,0,0,1-1,2.65h0a1.8,1.8,0,0,1-.84.18h0A2,2,0,0,1,46.39,23.09Zm44.89.85a2,2,0,0,1-1-2.64h0a2,2,0,0,1,2.65-1h0a2,2,0,0,1,1,2.65h0a2,2,0,0,1-1.82,1.17h0A1.89,1.89,0,0,1,91.28,23.94ZM60.64,18.27A2,2,0,0,1,62.33,16h0a2,2,0,0,1,2.27,1.7h0A2,2,0,0,1,62.91,20h0a1.46,1.46,0,0,1-.29,0h0A2,2,0,0,1,60.64,18.27Zm16.74,1.65a2,2,0,0,1-1.7-2.26h0A2,2,0,0,1,77.94,16h0a2,2,0,0,1,1.7,2.26h0a2,2,0,0,1-2,1.72h0Z"></path></g></g><style data-made-with="vivus-instant">.bsCFylJp_0{stroke-dasharray:245 247;stroke-dashoffset:246;}.start .bsCFylJp_0{animation:bsCFylJp_draw 800ms linear 0ms forwards;}.bsCFylJp_1{stroke-dasharray:135 137;stroke-dashoffset:136;}.start .bsCFylJp_1{animation:bsCFylJp_draw 800ms linear 7ms forwards;}.bsCFylJp_2{stroke-dasharray:442 444;stroke-dashoffset:443;}.start .bsCFylJp_2{animation:bsCFylJp_draw 800ms linear 14ms forwards;}.bsCFylJp_3{stroke-dasharray:63 65;stroke-dashoffset:64;}.start .bsCFylJp_3{animation:bsCFylJp_draw 800ms linear 21ms forwards;}.bsCFylJp_4{stroke-dasharray:210 212;stroke-dashoffset:211;}.start .bsCFylJp_4{animation:bsCFylJp_draw 800ms linear 29ms forwards;}.bsCFylJp_5{stroke-dasharray:56 58;stroke-dashoffset:57;}.start .bsCFylJp_5{animation:bsCFylJp_draw 800ms linear 36ms forwards;}.bsCFylJp_6{stroke-dasharray:49 51;stroke-dashoffset:50;}.start .bsCFylJp_6{animation:bsCFylJp_draw 800ms linear 43ms forwards;}.bsCFylJp_7{stroke-dasharray:49 51;stroke-dashoffset:50;}.start .bsCFylJp_7{animation:bsCFylJp_draw 800ms linear 50ms forwards;}.bsCFylJp_8{stroke-dasharray:198 200;stroke-dashoffset:199;}.start .bsCFylJp_8{animation:bsCFylJp_draw 800ms linear 58ms forwards;}.bsCFylJp_9{stroke-dasharray:186 188;stroke-dashoffset:187;}.start .bsCFylJp_9{animation:bsCFylJp_draw 800ms linear 65ms forwards;}.bsCFylJp_10{stroke-dasharray:49 51;stroke-dashoffset:50;}.start .bsCFylJp_10{animation:bsCFylJp_draw 800ms linear 72ms forwards;}.bsCFylJp_11{stroke-dasharray:49 51;stroke-dashoffset:50;}.start .bsCFylJp_11{animation:bsCFylJp_draw 800ms linear 80ms forwards;}.bsCFylJp_12{stroke-dasharray:49 51;stroke-dashoffset:50;}.start .bsCFylJp_12{animation:bsCFylJp_draw 800ms linear 87ms forwards;}.bsCFylJp_13{stroke-dasharray:49 51;stroke-dashoffset:50;}.start .bsCFylJp_13{animation:bsCFylJp_draw 800ms linear 94ms forwards;}.bsCFylJp_14{stroke-dasharray:49 51;stroke-dashoffset:50;}.start .bsCFylJp_14{animation:bsCFylJp_draw 800ms linear 101ms forwards;}.bsCFylJp_15{stroke-dasharray:7 9;stroke-dashoffset:8;}.start .bsCFylJp_15{animation:bsCFylJp_draw 800ms linear 109ms forwards;}.bsCFylJp_16{stroke-dasharray:7 9;stroke-dashoffset:8;}.start .bsCFylJp_16{animation:bsCFylJp_draw 800ms linear 116ms forwards;}.bsCFylJp_17{stroke-dasharray:7 9;stroke-dashoffset:8;}.start .bsCFylJp_17{animation:bsCFylJp_draw 800ms linear 123ms forwards;}.bsCFylJp_18{stroke-dasharray:7 9;stroke-dashoffset:8;}.start .bsCFylJp_18{animation:bsCFylJp_draw 800ms linear 130ms forwards;}.bsCFylJp_19{stroke-dasharray:7 9;stroke-dashoffset:8;}.start .bsCFylJp_19{animation:bsCFylJp_draw 800ms linear 138ms forwards;}.bsCFylJp_20{stroke-dasharray:7 9;stroke-dashoffset:8;}.start .bsCFylJp_20{animation:bsCFylJp_draw 800ms linear 145ms forwards;}.bsCFylJp_21{stroke-dasharray:7 9;stroke-dashoffset:8;}.start .bsCFylJp_21{animation:bsCFylJp_draw 800ms linear 152ms forwards;}.bsCFylJp_22{stroke-dasharray:7 9;stroke-dashoffset:8;}.start .bsCFylJp_22{animation:bsCFylJp_draw 800ms linear 160ms forwards;}.bsCFylJp_23{stroke-dasharray:7 9;stroke-dashoffset:8;}.start .bsCFylJp_23{animation:bsCFylJp_draw 800ms linear 167ms forwards;}.bsCFylJp_24{stroke-dasharray:7 9;stroke-dashoffset:8;}.start .bsCFylJp_24{animation:bsCFylJp_draw 800ms linear 174ms forwards;}.bsCFylJp_25{stroke-dasharray:7 9;stroke-dashoffset:8;}.start .bsCFylJp_25{animation:bsCFylJp_draw 800ms linear 181ms forwards;}.bsCFylJp_26{stroke-dasharray:7 9;stroke-dashoffset:8;}.start .bsCFylJp_26{animation:bsCFylJp_draw 800ms linear 189ms forwards;}.bsCFylJp_27{stroke-dasharray:7 9;stroke-dashoffset:8;}.start .bsCFylJp_27{animation:bsCFylJp_draw 800ms linear 196ms forwards;}.bsCFylJp_28{stroke-dasharray:7 9;stroke-dashoffset:8;}.start .bsCFylJp_28{animation:bsCFylJp_draw 800ms linear 203ms forwards;}.bsCFylJp_29{stroke-dasharray:7 9;stroke-dashoffset:8;}.start .bsCFylJp_29{animation:bsCFylJp_draw 800ms linear 210ms forwards;}.bsCFylJp_30{stroke-dasharray:7 9;stroke-dashoffset:8;}.start .bsCFylJp_30{animation:bsCFylJp_draw 800ms linear 218ms forwards;}.bsCFylJp_31{stroke-dasharray:7 9;stroke-dashoffset:8;}.start .bsCFylJp_31{animation:bsCFylJp_draw 800ms linear 225ms forwards;}.bsCFylJp_32{stroke-dasharray:7 9;stroke-dashoffset:8;}.start .bsCFylJp_32{animation:bsCFylJp_draw 800ms linear 232ms forwards;}.bsCFylJp_33{stroke-dasharray:7 9;stroke-dashoffset:8;}.start .bsCFylJp_33{animation:bsCFylJp_draw 800ms linear 240ms forwards;}.bsCFylJp_34{stroke-dasharray:7 9;stroke-dashoffset:8;}.start .bsCFylJp_34{animation:bsCFylJp_draw 800ms linear 247ms forwards;}.bsCFylJp_35{stroke-dasharray:7 9;stroke-dashoffset:8;}.start .bsCFylJp_35{animation:bsCFylJp_draw 800ms linear 254ms forwards;}.bsCFylJp_36{stroke-dasharray:7 9;stroke-dashoffset:8;}.start .bsCFylJp_36{animation:bsCFylJp_draw 800ms linear 261ms forwards;}.bsCFylJp_37{stroke-dasharray:7 9;stroke-dashoffset:8;}.start .bsCFylJp_37{animation:bsCFylJp_draw 800ms linear 269ms forwards;}.bsCFylJp_38{stroke-dasharray:7 9;stroke-dashoffset:8;}.start .bsCFylJp_38{animation:bsCFylJp_draw 800ms linear 276ms forwards;}.bsCFylJp_39{stroke-dasharray:7 9;stroke-dashoffset:8;}.start .bsCFylJp_39{animation:bsCFylJp_draw 800ms linear 283ms forwards;}.bsCFylJp_40{stroke-dasharray:7 9;stroke-dashoffset:8;}.start .bsCFylJp_40{animation:bsCFylJp_draw 800ms linear 290ms forwards;}.bsCFylJp_41{stroke-dasharray:7 9;stroke-dashoffset:8;}.start .bsCFylJp_41{animation:bsCFylJp_draw 800ms linear 298ms forwards;}.bsCFylJp_42{stroke-dasharray:7 9;stroke-dashoffset:8;}.start .bsCFylJp_42{animation:bsCFylJp_draw 800ms linear 305ms forwards;}.bsCFylJp_43{stroke-dasharray:7 9;stroke-dashoffset:8;}.start .bsCFylJp_43{animation:bsCFylJp_draw 800ms linear 312ms forwards;}.bsCFylJp_44{stroke-dasharray:7 9;stroke-dashoffset:8;}.start .bsCFylJp_44{animation:bsCFylJp_draw 800ms linear 320ms forwards;}.bsCFylJp_45{stroke-dasharray:7 9;stroke-dashoffset:8;}.start .bsCFylJp_45{animation:bsCFylJp_draw 800ms linear 327ms forwards;}.bsCFylJp_46{stroke-dasharray:7 9;stroke-dashoffset:8;}.start .bsCFylJp_46{animation:bsCFylJp_draw 800ms linear 334ms forwards;}.bsCFylJp_47{stroke-dasharray:7 9;stroke-dashoffset:8;}.start .bsCFylJp_47{animation:bsCFylJp_draw 800ms linear 341ms forwards;}.bsCFylJp_48{stroke-dasharray:7 9;stroke-dashoffset:8;}.start .bsCFylJp_48{animation:bsCFylJp_draw 800ms linear 349ms forwards;}.bsCFylJp_49{stroke-dasharray:7 9;stroke-dashoffset:8;}.start .bsCFylJp_49{animation:bsCFylJp_draw 800ms linear 356ms forwards;}.bsCFylJp_50{stroke-dasharray:7 9;stroke-dashoffset:8;}.start .bsCFylJp_50{animation:bsCFylJp_draw 800ms linear 363ms forwards;}.bsCFylJp_51{stroke-dasharray:7 9;stroke-dashoffset:8;}.start .bsCFylJp_51{animation:bsCFylJp_draw 800ms linear 370ms forwards;}.bsCFylJp_52{stroke-dasharray:7 9;stroke-dashoffset:8;}.start .bsCFylJp_52{animation:bsCFylJp_draw 800ms linear 378ms forwards;}.bsCFylJp_53{stroke-dasharray:7 9;stroke-dashoffset:8;}.start .bsCFylJp_53{animation:bsCFylJp_draw 800ms linear 385ms forwards;}.bsCFylJp_54{stroke-dasharray:7 9;stroke-dashoffset:8;}.start .bsCFylJp_54{animation:bsCFylJp_draw 800ms linear 392ms forwards;}.bsCFylJp_55{stroke-dasharray:278 280;stroke-dashoffset:279;}.start .bsCFylJp_55{animation:bsCFylJp_draw 800ms linear 400ms forwards;}@keyframes bsCFylJp_draw{100%{stroke-dashoffset:0;}}@keyframes bsCFylJp_fade{0%{stroke-opacity:1;}92.5925925925926%{stroke-opacity:1;}100%{stroke-opacity:0;}}</style></svg>