
<svg width="55px" height="58px" viewBox="0 0 55 58" version="1.1" xmlns="http://www.w3.org/2000/svg" xmlns:xlink="http://www.w3.org/1999/xlink">
    <!-- Generator: Sketch 50.2 (55047) - http://www.bohemiancoding.com/sketch -->
    <desc>Created with Sketch.</desc>
    <defs></defs>
    <g id="Welcome" stroke="none" stroke-width="1" fill="none" fill-rule="evenodd">
        <g id="OurTeam" transform="translate(-1187.000000, -608.000000)" fill="#00AFD7" fill-rule="nonzero">
            <g id="thumbs-up" transform="translate(1187.539261, 608.638672)">
                <path d="M52.1324286,32.0540587 C53.1129794,30.3937191 53.667544,28.6226901 53.667544,26.4815788 C53.667544,21.5603768 49.5062968,16.9131029 44.0722344,16.9131029 L39.993501,16.9131029 C40.5435934,15.4808503 40.9829964,13.7679612 40.9829964,11.7095873 C40.9829964,3.5706806 36.7689761,0 30.331107,0 C23.4429895,0 23.8358806,10.6142103 22.3078091,12.1422818 C19.7645266,14.6855644 16.7604858,19.571547 14.6199334,21.4670176 L3.57783627,21.4670176 C1.60186438,21.4670176 0,23.068882 0,25.0448539 L0,51.8786259 C0,53.8545978 1.60186438,55.4564622 3.57783627,55.4564622 L10.7335088,55.4564622 C12.3986562,55.4564622 13.7979256,54.3189338 14.1970779,52.7786753 C19.1735128,52.8905945 22.5893401,57.2442622 34.0766543,57.2442622 C34.8839036,57.2442622 35.7783627,57.2453803 36.5610144,57.2453803 C45.1832643,57.2453803 49.081876,52.8375978 49.1885402,46.5867824 C50.6777028,44.5267314 51.4581183,41.7654244 51.1272803,39.0968058 C52.2290302,37.033736 52.6550164,34.5861606 52.1324286,32.0540587 Z M45.2283227,38.0726502 C46.6326235,40.4351402 45.3692,43.597053 43.6697278,44.5094012 C44.5306446,49.9633654 41.7010234,51.8775078 37.7305196,51.8775078 L33.5019644,51.8775078 C25.4921952,51.8775078 20.3054507,47.6489526 14.3113451,47.6489526 L14.3113451,26.833772 L15.5322817,26.833772 C18.7031391,26.833772 23.1329476,18.9077466 26.1025517,15.9370244 C29.2734091,12.766167 28.2168293,7.48103202 30.331107,5.3667544 C35.616242,5.3667544 35.616242,9.05416191 35.616242,11.7095873 C35.616242,16.0890825 32.4453846,18.051302 32.4453846,22.2798573 L44.0722344,22.2798573 C46.4324882,22.2798573 48.290727,24.3941349 48.3007896,26.5084125 C48.3108523,28.6215721 46.867419,30.7358497 45.8108392,30.7358497 C47.319009,32.3632062 47.6412379,35.7935685 45.2283227,38.0726502 Z M9.83904974,48.3007896 C9.83904974,49.7827965 8.6376794,50.9841668 7.15567254,50.9841668 C5.67366567,50.9841668 4.47229533,49.7827965 4.47229533,48.3007896 C4.47229533,46.8187828 5.67366567,45.6174124 7.15567254,45.6174124 C8.6376794,45.6174124 9.83904974,46.8187828 9.83904974,48.3007896 Z" id="Shape"></path>
            </g>
        </g>
    </g>
</svg>